<?xml version="1.0" encoding="UTF-8"?>
<svg id="Layer_1" data-name="Layer 1" xmlns="http://www.w3.org/2000/svg" viewBox="0 0 1847.7 2022.86">
  <defs>
    <style>
      .cls-1 {
        fill: #1db575;
        stroke-width: 88px;
      }

      .cls-1, .cls-2 {
        stroke: #1db575;
        stroke-miterlimit: 10;
      }

      .cls-2 {
        fill: none;
        stroke-linecap: round;
        stroke-width: 100px;
      }

      .cls-3 {
        fill: #fff;
        stroke-width: 0px;
      }
    </style>
  </defs>
  <path class="cls-1" d="M1298.28,1038.81c-35.11-88.29-157.53-273.35-374.43-278.06-208.69-4.54-345.56,161.85-388.74,268.49-34.32,84.75-31.64,162.95-26.27,208.14,2.03,12.36,5.34,29.79,10.77,50.34,9.13,34.53,20.1,62.12,29.1,82.45,36.64,82.74,70.32,112.2,95.53,172.35,13.48,32.17,28.23,81.94,26.28,151.7h501.91c-7.49-48.87-2.53-86.31,3.28-111.28,13.61-58.5,37.06-70.89,94.98-189.96,14.25-29.3,27.19-56.23,38.4-92.96,3.29-10.79,13.39-45.12,17.51-78.78,10.43-85.02-18.27-157.18-28.31-182.43Z"/>
  <path class="cls-1" d="M1218.94,1747.09v-10.86c0-23.2-18.81-42.01-42.01-42.01h-506.17c-23.2,0-42.01,18.81-42.01,42.01v10.86c0,23.2,18.81,42.01,42.01,42.01-23.2,0-42.01,18.81-42.01,42.01v10.86c0,23.2,18.81,42.01,42.01,42.01-23.2,0-42.01,18.81-42.01,42.01v10.86c0,23.2,18.81,42.01,42.01,42.01h506.17c23.2,0,42.01-18.81,42.01-42.01v-10.86c0-23.2-18.81-42.01-42.01-42.01,23.2,0,42.01-18.81,42.01-42.01v-10.86c0-23.2-18.81-42.01-42.01-42.01,23.2,0,42.01-18.81,42.01-42.01Z"/>
  <line class="cls-2" x1="50" y1="884.71" x2="253.59" y2="941.59"/>
  <line class="cls-2" x1="526.47" y1="595.96" x2="329.04" y2="328.72"/>
  <line class="cls-2" x1="923.85" y1="507.97" x2="923.85" y2="50"/>
  <line class="cls-2" x1="1797.7" y1="896.88" x2="1594.11" y2="953.76"/>
  <line class="cls-2" x1="1321.23" y1="608.13" x2="1518.66" y2="340.89"/>
  <path class="cls-3" d="M1277.03,1172.25c.37,16.71-.73,29.13-1.67,39.56-1.52,16.68-4.29,45.37-15.41,79.56-3.61,11.12-9.19,26.16-17.73,43.1-6.56.53-16.64.4-28.28-3.63-13.31-4.62-22.78-12.31-28.21-17.49,7.26-14.38,12-27.17,15.07-36.63,9.44-29.06,11.8-53.44,13.09-67.63.81-8.86,1.73-19.42,1.42-33.62-.66-30.69-6.56-53.17-8.2-59.15-3.02-11.05-8.01-25.89-16.4-42.13h0c6.45-5,15.81-11.11,27.9-15.5,11.65-4.22,21.93-5.41,29.46-5.61,9.87,19.1,15.73,36.56,19.3,49.57,1.93,7.03,8.86,33.49,9.64,69.59Z"/>
</svg>