<?xml version="1.0" encoding="UTF-8"?>
<svg id="Layer_1" data-name="Layer 1" xmlns="http://www.w3.org/2000/svg" viewBox="0 0 769.93 1190.1">
  <defs>
    <style>
      .cls-1 {
        fill: #1db575;
        stroke: #1db575;
        stroke-miterlimit: 10;
        stroke-width: 5px;
      }

      .cls-2 {
        fill: #fff;
        stroke-width: 0px;
      }
    </style>
  </defs>
  <path class="cls-1" d="M367,2.92C164.11,12.3,2.5,179.76,2.5,384.96c0,48.01,8.85,93.96,25,136.29h-.24l1.25,2.6s0,0,0,0c6.93,17.76,15.14,34.88,24.53,51.24,0,0,0,0,0,0l139.42,291.24h383.57l133.74-279.37s0,0,0-.01c31.97-51.3,52.12-110.71,56.66-174.45C782.68,184.54,595.31-7.64,367,2.92Z"/>
  <path class="cls-1" d="M195.98,948.22v47.14c0,106.17,86.07,192.24,192.24,192.24s192.24-86.07,192.24-192.24v-47.14H195.98Z"/>
  <path class="cls-2" d="M190.31,346.51c.29-5.18.79-10.35,1.47-15.5l-1.34,9.97c1.82-13.46,4.95-26.73,9.36-39.58,1.51-4.4,3.18-8.75,4.98-13.05l-3.78,8.96c6.79-16.06,15.63-31.21,26.27-45.03l-5.86,7.59c8.54-11.04,18.19-21.19,28.79-30.26,2.64-2.26,5.33-4.44,8.08-6.57l-7.59,5.86c9.09-7.01,18.76-13.27,28.89-18.67,1.99-1.06,4-2.09,6.03-3.08,4.37-2.36,7.88-5.58,10.52-9.66,3.31-3.62,5.55-7.87,6.71-12.75,1.56-4.98,1.79-9.97.67-14.95-.23-4.99-1.71-9.64-4.45-13.94l-5.86-7.59c-4.68-4.65-10.19-7.86-16.55-9.64l-9.97-1.34c-6.77.02-13.08,1.73-18.93,5.12-8.98,4.41-17.63,9.48-25.87,15.15s-16.05,11.71-23.63,18.1c-6.05,5.1-11.8,10.56-17.22,16.33-8.1,8.63-15.44,18.01-22.36,27.59-5.72,7.92-10.87,16.26-15.39,24.92-5.55,10.63-10.28,21.76-14.4,33.01-2.68,7.32-4.94,14.78-6.78,22.35-1.53,6.32-2.77,12.71-3.7,19.14-1.18,8.16-2.33,16.35-2.91,24.59-.07.97-.13,1.95-.19,2.92-.19,5.16.88,9.98,3.23,14.45,1.51,4.65,4.1,8.67,7.75,12.07,3.4,3.66,7.42,6.24,12.07,7.75,4.47,2.35,9.28,3.42,14.45,3.23l9.97-1.34c6.35-1.78,11.87-5,16.55-9.64l5.86-7.59c3.39-5.85,5.1-12.16,5.12-18.93h0Z"/>
</svg>