<?xml version="1.0" encoding="UTF-8"?>
<svg id="Layer_1" data-name="Layer 1" xmlns="http://www.w3.org/2000/svg" viewBox="0 0 1847.7 2028.86">
  <defs>
    <style>
      .cls-1, .cls-2 {
        fill: none;
        stroke: #1db575;
        stroke-miterlimit: 10;
        stroke-width: 100px;
      }

      .cls-2 {
        stroke-linecap: round;
      }
    </style>
  </defs>
  <path class="cls-1" d="M1298.28,1038.81c-35.11-88.29-157.53-273.35-374.43-278.06-208.69-4.54-345.56,161.85-388.74,268.49-34.32,84.75-31.64,162.95-26.27,208.14,2.03,12.36,5.34,29.79,10.77,50.34,9.13,34.53,20.1,62.12,29.1,82.45,36.64,82.74,70.32,112.2,95.53,172.35,13.48,32.17,28.23,81.94,26.28,151.7h501.91c-7.49-48.87-2.53-86.31,3.28-111.28,13.61-58.5,37.06-70.89,94.98-189.96,14.25-29.3,27.19-56.23,38.4-92.96,3.29-10.79,13.39-45.12,17.51-78.78,10.43-85.02-18.27-157.18-28.31-182.43Z"/>
  <path class="cls-1" d="M1218.94,1747.09v-10.86c0-23.2-18.81-42.01-42.01-42.01h-506.17c-23.2,0-42.01,18.81-42.01,42.01v10.86c0,23.2,18.81,42.01,42.01,42.01-23.2,0-42.01,18.81-42.01,42.01v10.86c0,23.2,18.81,42.01,42.01,42.01-23.2,0-42.01,18.81-42.01,42.01v10.86c0,23.2,18.81,42.01,42.01,42.01h506.17c23.2,0,42.01-18.81,42.01-42.01v-10.86c0-23.2-18.81-42.01-42.01-42.01,23.2,0,42.01-18.81,42.01-42.01v-10.86c0-23.2-18.81-42.01-42.01-42.01,23.2,0,42.01-18.81,42.01-42.01Z"/>
  <line class="cls-2" x1="50" y1="884.71" x2="316.36" y2="959.13"/>
  <line class="cls-2" x1="591.38" y1="683.81" x2="329.04" y2="328.72"/>
  <line class="cls-1" x1="923.85" y1="594.25" x2="923.85" y2="50"/>
  <line class="cls-2" x1="923.85" y1="594.25" x2="923.85" y2="50"/>
  <line class="cls-2" x1="1797.7" y1="886.41" x2="1531.34" y2="960.83"/>
  <line class="cls-2" x1="1256.32" y1="685.52" x2="1518.66" y2="330.42"/>
  <line class="cls-2" x1="923.85" y1="595.96" x2="923.85" y2="51.7"/>
</svg>