<?xml version="1.0" encoding="UTF-8"?>
<svg id="Layer_1" data-name="Layer 1" xmlns="http://www.w3.org/2000/svg" viewBox="0 0 873.21 1268.2">
  <defs>
    <style>
      .cls-1 {
        fill: none;
        stroke: #1db575;
        stroke-miterlimit: 10;
        stroke-width: 50px;
      }
    </style>
  </defs>
  <path class="cls-1" d="M817.65,303.16C782.54,214.87,660.11,29.81,443.21,25.09,234.53,20.55,97.66,186.94,54.48,293.58c-34.32,84.75-31.64,162.95-26.27,208.14,2.03,12.36,5.34,29.79,10.77,50.34,9.13,34.53,20.1,62.12,29.1,82.45,36.64,82.74,70.32,112.2,95.53,172.35,13.48,32.17,28.23,81.94,26.28,151.7h501.91c-7.49-48.87-2.53-86.31,3.28-111.28,13.61-58.5,37.06-70.89,94.98-189.96,14.25-29.3,27.19-56.23,38.4-92.96,3.29-10.79,13.39-45.12,17.51-78.78,10.43-85.02-18.27-157.18-28.31-182.43Z"/>
  <path class="cls-1" d="M738.31,1011.43v-10.86c0-23.2-18.81-42.01-42.01-42.01H190.13c-23.2,0-42.01,18.81-42.01,42.01v10.86c0,23.2,18.81,42.01,42.01,42.01-23.2,0-42.01,18.81-42.01,42.01v10.86c0,23.2,18.81,42.01,42.01,42.01-23.2,0-42.01,18.81-42.01,42.01v10.86c0,23.2,18.81,42.01,42.01,42.01h506.17c23.2,0,42.01-18.81,42.01-42.01v-10.86c0-23.2-18.81-42.01-42.01-42.01,23.2,0,42.01-18.81,42.01-42.01v-10.86c0-23.2-18.81-42.01-42.01-42.01,23.2,0,42.01-18.81,42.01-42.01Z"/>
</svg>