<?xml version="1.0" encoding="UTF-8"?>
<svg id="Layer_1" data-name="Layer 1" xmlns="http://www.w3.org/2000/svg" viewBox="0 0 755.53 751.61">
  <defs>
    <style>
      .cls-1 {
        fill: #f57d20;
        stroke: #f57d20;
        stroke-width: 12.83px;
      }

      .cls-1, .cls-2 {
        stroke-miterlimit: 10;
      }

      .cls-2 {
        fill: none;
        stroke: #fff;
        stroke-width: 1.83px;
      }

      .cls-3 {
        fill: #fff;
        stroke-width: 0px;
      }
    </style>
  </defs>
  <path class="cls-1" d="M539.18,554.48L437.08,36.81c-4-20.26-31.66-30.39-59.32-30.39s-55.32,10.13-59.32,30.39l-102.1,517.67-196.58,67.47,358,122.87,358-122.87-196.58-67.47Z"/>
  <g>
    <path class="cls-3" d="M507.29,361.35l9.38,47.22c-22.17,11.77-71.79,34.41-139.12,34.36-67.04-.06-116.45-22.59-138.61-34.36l9.24-47.22c20.68,11.04,66.78,32.18,129.32,32.23,62.81.05,109.11-21.19,129.79-32.23Z"/>
    <g>
      <path class="cls-2" d="M248.18,361.35c20.68,11.04,66.78,32.18,129.32,32.23,62.81.05,109.11-21.19,129.79-32.23"/>
      <path class="cls-2" d="M238.94,408.57c22.16,11.77,71.57,34.3,138.61,34.36,67.33.05,116.95-22.59,139.12-34.36"/>
      <line class="cls-2" x1="248.18" y1="361.35" x2="238.94" y2="408.57"/>
      <line class="cls-2" x1="507.29" y1="361.35" x2="516.67" y2="408.57"/>
    </g>
  </g>
  <g>
    <path class="cls-3" d="M468.23,161.29l9.74,47.24c-19.26,8.53-53.6,20.79-97.98,21.1-46.28.34-82.03-12.47-101.52-21.1l9.14-47.4c17.28,7.84,49.47,19.73,91.35,19.53,40.71-.19,72.05-11.72,89.21-19.5l.06.13Z"/>
    <g>
      <line class="cls-2" x1="287.61" y1="161.13" x2="278.47" y2="208.53"/>
      <line class="cls-2" x1="468.23" y1="161.29" x2="477.97" y2="208.53"/>
      <path class="cls-2" d="M278.47,208.53c19.49,8.63,55.24,21.44,101.52,21.1,44.38-.31,78.72-12.57,97.98-21.1"/>
      <path class="cls-2" d="M287.61,161.13c17.28,7.84,49.47,19.73,91.35,19.53,40.71-.19,72.05-11.72,89.21-19.5l.06-.03"/>
    </g>
  </g>
</svg>