<?xml version="1.0" encoding="UTF-8"?>
<svg id="Layer_1" data-name="Layer 1" xmlns="http://www.w3.org/2000/svg" viewBox="0 0 577.81 577.67">
  <defs>
    <style>
      .cls-1, .cls-2 {
        stroke-width: 0px;
      }

      .cls-2 {
        fill: #fff;
      }
    </style>
  </defs>
  <path class="cls-1" d="m577.64,122.01h-121.94V.05h121.94v121.96Zm-104.51-17.64h86.99V17.39h-86.99v86.98Z"/>
  <path class="cls-1" d="m121.98,577.67H0v-121.96h121.98v121.96Zm-17.49-17.48v-86.99H17.49v86.99h86.99Z"/>
  <path class="cls-1" d="m122.12,0v121.95H.16V0h121.96Zm-17.49,104.46V17.48H17.64v86.98"/>
  <path class="cls-1" d="m210,86.25c-19.16,0-38.33.01-57.49-.02-1.99,0-4.1.11-5.96-.47-3.6-1.14-5.99-3.59-5.52-7.71.45-4.05,2.61-6.73,6.85-7.29,1.26-.17,2.55-.09,3.83-.09,38.51,0,77.02,0,115.53,0,8.02,0,11.75,2.35,11.85,7.39.11,5.56-3.6,8.19-11.59,8.19-19.16,0-38.33,0-57.49,0Z"/>
  <path class="cls-1" d="m236.39,156.35c-16.97,0-33.95.06-50.92-.03-6.66-.04-10.55-3.93-9.29-9.15,1.16-4.84,4.54-6.46,9.38-6.45,31.76.1,63.51.05,95.27.05,2.19,0,4.38-.06,6.57.02,6,.21,9.35,3.1,9.18,7.82-.18,4.9-3.45,7.72-9.26,7.73-16.97.05-33.95.02-50.92.01Z"/>
  <path class="cls-1" d="m463.59,491.29c17.16,0,34.31-.07,51.47.04,6.83.04,10.79,4.39,9.07,9.77-1.16,3.62-3.64,5.77-7.69,5.77-34.68-.02-69.35.03-104.03-.07-5.52-.02-8.75-3.3-8.53-7.85.23-4.69,3.44-7.61,8.8-7.63,16.97-.06,33.95-.02,50.92-.02Z"/>
  <path class="cls-1" d="m437.85,158.29c14.05,0,28.11-.08,42.16.04,6.83.05,10.79,4.4,9.06,9.77-1.16,3.61-3.65,5.77-7.69,5.77-28.83-.02-57.67.04-86.5-.07-5.52-.02-8.75-3.3-8.52-7.85.23-4.69,3.44-7.6,8.8-7.63,14.23-.07,28.47-.02,42.7-.02Z"/>
  <path class="cls-1" d="m455.38,421.19c14.05,0,28.11-.08,42.16.04,6.83.05,10.78,4.41,9.05,9.78-1.16,3.61-3.65,5.76-7.7,5.76-28.83-.02-57.67.04-86.5-.07-5.52-.02-8.74-3.31-8.52-7.86.23-4.68,3.45-7.6,8.81-7.62,14.23-.07,28.47-.02,42.7-.02Z"/>
  <path class="cls-1" d="m218.77,419.24c-10.95,0-21.9.06-32.85-.02-6.5-.04-9.98-2.83-9.91-7.64.08-5.18,3.55-7.91,10.19-7.92,21.72-.02,43.43.02,65.15-.03,4.54-.01,8.51.96,9.99,5.8,1.51,4.94-2.41,9.7-8.08,9.76-11.5.13-22.99.04-34.49.04Z"/>
  <path class="cls-1" d="m394.59,454.29c-11.13,0-22.26.06-33.39-.02-6.51-.04-9.99-2.82-9.92-7.63.07-5.17,3.55-7.92,10.18-7.93,21.72-.02,43.43.02,65.15-.03,4.54-.01,8.51.95,10,5.78,1.52,4.94-2.4,9.71-8.07,9.78-11.31.13-22.63.04-33.94.04Z"/>
  <path class="cls-1" d="m516.78,140.77c10.95,0,21.9-.06,32.85.02,6.47.04,9.96,2.87,9.85,7.7-.12,5.06-3.47,7.85-9.7,7.86-21.72.03-43.43.01-65.15,0-.91,0-1.83.01-2.73-.07-5.08-.47-8.16-3.56-7.91-7.92.26-4.5,3.37-7.51,8.31-7.55,11.5-.1,22.99-.03,34.49-.04Z"/>
  <path class="cls-1" d="m148.52,226.43c-11.31,0-22.63.15-33.94-.05-7.1-.13-11.04-5.96-7.52-11.27,1.36-2.05,4.58-4.02,6.98-4.05,22.81-.3,45.62-.23,68.43-.14,5.64.02,8.95,3.02,8.96,7.48,0,4.88-3.36,8-8.97,8.04-11.31.07-22.63.02-33.94.02v-.02Z"/>
  <path class="cls-1" d="m534.77,331.61c-10.95,0-21.9.04-32.85,0-6.98-.03-10.53-2.69-10.45-7.66.09-5.18,3.54-7.9,10.2-7.91,21.72-.02,43.43.02,65.15-.03,4.54-.01,8.51.97,9.98,5.81,1.5,4.95-2.41,9.69-8.09,9.76-11.31.13-22.63.04-33.94.04Z"/>
  <path class="cls-1" d="m341.57,473.78c11.31,0,22.63-.15,33.94.05,7.11.13,11.06,5.94,7.55,11.25-1.36,2.06-4.57,4.04-6.97,4.07-22.81.3-45.62.23-68.43.14-5.65-.02-8.97-3-8.99-7.45-.02-5.02,3.45-8.05,9.5-8.07,11.13-.05,22.26-.01,33.4-.01v.02Z"/>
  <path class="cls-1" d="m341.39,51.19c-10.95,0-21.9.06-32.85-.02-6.47-.04-9.96-2.87-9.85-7.7.12-5.06,3.47-7.85,9.7-7.86,21.72-.03,43.43-.01,65.15,0,.91,0,1.83-.01,2.73.07,5.08.47,8.16,3.56,7.91,7.92-.26,4.5-3.37,7.51-8.31,7.55-11.5.1-22.99.03-34.49.04Z"/>
  <path class="cls-1" d="m376.57,228.4c10.95,0,21.9-.06,32.85.02,6.47.04,9.96,2.87,9.85,7.69-.11,5.06-3.47,7.85-9.7,7.86-21.72.03-43.43.01-65.15,0-.91,0-1.83,0-2.73-.07-5.09-.47-8.16-3.56-7.91-7.91.25-4.5,3.37-7.51,8.31-7.56,11.5-.1,22.99-.03,34.49-.04Z"/>
  <path class="cls-1" d="m315.27,53.14c8.21,0,16.42-.08,24.63.03,5.99.09,9.38,3.06,9.25,7.73-.14,4.9-3.43,7.78-9.19,7.8-16.6.05-33.21,0-49.81.01-4.01,0-7.84-1.4-8.46-5.37-.42-2.7,1.22-6.17,2.94-8.59.93-1.31,3.93-1.52,6.02-1.56,8.21-.17,16.42-.07,24.63-.06Z"/>
  <path class="cls-1" d="m402.25,210.87c8.39,0,16.79-.08,25.18.03,6.04.08,9.44,2.97,9.37,7.62-.07,5.06-3.45,7.91-9.64,7.92-16.42.03-32.85.2-49.26-.19-2.8-.07-6.29-2.05-8.04-4.27-1.2-1.52-.82-5.66.49-7.4,1.46-1.96,4.72-3.41,7.28-3.55,8.19-.44,16.41-.16,24.62-.16Z"/>
  <path class="cls-1" d="m209.51,263.45c8.21,0,16.42-.06,24.63.02,6.48.06,9.96,2.86,9.86,7.68-.11,5.06-3.46,7.86-9.68,7.87-16.42.03-32.84,0-49.27,0-4.01,0-7.85-1.35-8.5-5.31-.44-2.7,1.17-6.17,2.87-8.61.91-1.31,3.92-1.55,6-1.59,8.02-.17,16.06-.07,24.08-.07Z"/>
  <path class="cls-1" d="m385.21,191.4c-8.03,0-16.06.06-24.09-.02-6.47-.06-9.96-2.87-9.85-7.7.11-5.06,3.47-7.84,9.7-7.86,16.42-.03,32.84,0,49.27,0,4.01,0,7.85,1.37,8.49,5.33.44,2.7-1.18,6.17-2.88,8.6-.92,1.31-3.93,1.54-6,1.59-8.21.17-16.42.07-24.63.07Z"/>
  <path class="cls-1" d="m490.43,333.55c8.21,0,16.42-.08,24.63.03,6.03.08,9.43,2.97,9.36,7.63-.08,5.06-3.45,7.9-9.64,7.91-16.42.03-32.85.2-49.26-.19-2.8-.07-6.29-2.05-8.04-4.27-1.2-1.52-.81-5.66.49-7.4,1.46-1.95,4.72-3.41,7.28-3.54,8.37-.43,16.78-.16,25.17-.16Z"/>
  <path class="cls-1" d="m332.69,541.92c-8.21,0-16.42.08-24.63-.03-6.04-.08-9.44-2.97-9.37-7.62.08-5.06,3.46-7.9,9.64-7.92,16.42-.03,32.85-.2,49.26.19,2.8.07,6.29,2.05,8.04,4.27,1.2,1.52.82,5.66-.49,7.4-1.46,1.96-4.72,3.42-7.28,3.55-8.37.43-16.78.16-25.17.16Z"/>
  <path class="cls-1" d="m157.54,298.5c8.21,0,16.42-.08,24.63.03,5.99.09,9.38,3.06,9.25,7.73-.14,4.9-3.43,7.78-9.19,7.8-16.6.05-33.21,0-49.81.01-4.01,0-7.84-1.4-8.46-5.37-.42-2.7,1.22-6.17,2.94-8.59.93-1.31,3.93-1.52,6.02-1.56,8.21-.17,16.42-.07,24.63-.06Z"/>
  <path class="cls-1" d="m244.94,576.97c-8.21,0-16.42.08-24.63-.03-5.99-.09-9.38-3.06-9.24-7.74.15-4.9,3.43-7.78,9.2-7.79,16.6-.05,33.21,0,49.81-.01,4.02,0,7.84,1.41,8.45,5.37.42,2.7-1.23,6.17-2.94,8.58-.93,1.31-3.94,1.51-6.02,1.55-8.21.16-16.42.07-24.63.06Z"/>
  <path class="cls-1" d="m472.93,401.71c-8.21,0-16.42.08-24.63-.03-6.05-.08-9.45-2.94-9.4-7.59.06-5.05,3.46-7.94,9.61-7.95,16.42-.03,32.85-.2,49.26.19,2.8.07,6.3,2.03,8.06,4.25,1.2,1.51.84,5.65-.46,7.4-1.46,1.96-4.71,3.44-7.26,3.57-8.37.43-16.78.16-25.17.16Z"/>
  <path class="cls-1" d="m227.5,436.77c-8.03,0-16.06.06-24.09-.02-6.49-.06-9.97-2.85-9.87-7.67.1-5.06,3.46-7.87,9.67-7.88,16.42-.03,32.84,0,49.27,0,4.01,0,7.85,1.34,8.51,5.3.45,2.7-1.16,6.18-2.86,8.61-.91,1.31-3.92,1.56-6,1.6-8.21.17-16.42.07-24.63.07Z"/>
  <path class="cls-1" d="m332.14,386.13c8.39,0,16.79-.08,25.18.03,6.04.08,9.44,2.97,9.37,7.62-.08,5.06-3.45,7.91-9.64,7.92-16.42.03-32.85.2-49.26-.19-2.8-.07-6.29-2.05-8.04-4.27-1.2-1.52-.82-5.66.49-7.4,1.46-1.96,4.72-3.41,7.28-3.55,8.19-.44,16.41-.16,24.62-.16Z"/>
  <path class="cls-1" d="m332.79,366.66c-8.21,0-16.42.07-24.63-.03-6.08-.08-9.48-2.89-9.47-7.53.02-5.02,3.47-8,9.55-8.01,16.42-.04,32.85-.1,49.27.04,7.5.06,11.69,5.89,8,11.31-1.45,2.13-4.9,3.87-7.54,4.03-8.36.51-16.78.19-25.17.19Z"/>
  <path class="cls-1" d="m437.77,543.87c8.21,0,16.42-.08,24.63.03,6.07.08,9.47,2.91,9.45,7.55-.03,5.03-3.47,7.98-9.57,7.99-16.42.04-32.85.1-49.27-.04-7.49-.06-11.68-5.91-7.97-11.32,1.46-2.13,4.91-3.86,7.55-4.02,8.36-.51,16.78-.19,25.17-.19Z"/>
  <path class="cls-1" d="m297.92,524.39c-8.21,0-16.42.07-24.63-.02-6.14-.07-9.57-2.77-9.67-7.35-.11-5.18,3.48-8.19,9.93-8.2,16.24-.03,32.48-.09,48.72.03,7.58.06,11.82,5.66,8.25,11.15-1.4,2.16-4.81,4.03-7.43,4.19-8.36.53-16.77.2-25.17.2Z"/>
  <path class="cls-1" d="m262.67,384.18c-8.21,0-16.42.08-24.63-.03-6.08-.08-9.48-2.91-9.45-7.55.03-5.03,3.47-7.98,9.57-7.99,16.42-.04,32.85-.1,49.27.04,7.49.06,11.68,5.91,7.97,11.32-1.46,2.13-4.91,3.86-7.55,4.02-8.36.51-16.78.19-25.17.19Z"/>
  <path class="cls-1" d="m122.38,156.34c-8.21,0-16.42.08-24.63-.03-6.04-.08-9.44-2.97-9.37-7.62.08-5.06,3.46-7.9,9.64-7.92,16.42-.03,32.85-.2,49.26.19,2.8.07,6.29,2.05,8.04,4.27,1.2,1.52.82,5.66-.49,7.4-1.46,1.96-4.72,3.42-7.28,3.55-8.37.43-16.78.16-25.17.16Z"/>
  <path class="cls-1" d="m244.51,386.13c8.39,0,16.79-.08,25.18.03,6.04.08,9.44,2.97,9.37,7.62-.08,5.06-3.45,7.91-9.64,7.92-16.42.03-32.85.2-49.26-.19-2.8-.07-6.29-2.05-8.04-4.27-1.2-1.52-.82-5.66.49-7.4,1.46-1.96,4.72-3.41,7.28-3.55,8.19-.44,16.41-.16,24.62-.16Z"/>
  <path class="cls-1" d="m122.61,401.71c-8.03,0-16.06.05-24.09-.01-6.59-.05-10.1-2.67-10.16-7.41-.07-5.18,3.49-8.14,9.97-8.15,16.24-.03,32.48-.09,48.72.04,7.56.06,11.78,5.72,8.19,11.19-1.41,2.15-4.84,3.99-7.46,4.15-8.36.52-16.78.19-25.17.2Z"/>
  <path class="cls-1" d="m34.2,280.98c8.39,0,16.79-.08,25.18.03,6.04.08,9.44,2.97,9.37,7.62-.07,5.06-3.45,7.91-9.64,7.92-16.42.03-32.85.2-49.26-.19-2.8-.07-6.29-2.05-8.04-4.27-1.2-1.52-.82-5.66.49-7.4,1.46-1.96,4.72-3.41,7.28-3.55,8.19-.44,16.41-.16,24.62-.16Z"/>
  <path class="cls-1" d="m490.52,226.45c-8.21,0-16.42.08-24.63-.03-6.08-.08-9.48-2.9-9.47-7.53.02-5.02,3.47-8,9.55-8.01,16.42-.04,32.85-.1,49.27.04,7.5.06,11.69,5.89,8,11.31-1.45,2.13-4.9,3.87-7.54,4.03-8.36.51-16.78.19-25.17.19Z"/>
  <path class="cls-1" d="m567.61,565.47c-3.01-.77-5.85-1.59-8.73-2.19-.9-.19-1.95.1-2.87.36-1.03.3-2,1.21-2.98,1.18-5.46-.16-10.92-.57-16.38-.77-1.36-.05-2.74.32-4.09.56-3.58.64-6.98.83-8.29-2.36-4.93.92-9.44,2.12-14.01,2.51-4.95.43-7.28-2.78-7.58-7.38-.24-3.64.14-7.32-.21-10.94-.16-1.64-1.4-3.17-2.69-5.88.89-.38,3.93-2.01,4.14-1.7,1.75,2.55,2.97,5.47,4.37,8.29,2.46.53,6.62.27,8.77,2.23,2.07,1.89,2.06,6.06,3.18,9.98,1.05-1.87,2.34-3.66,3.08-5.65.72-1.96.88-4.13,1.48-7.18,6.19,3.86,1.35,10.12,4.36,13.86,4.03-.63,6.03-5.66,4.97-10.29-.61-2.67.37-5.7.63-8.57,1.27.18,3.14-.09,3.7.64,1.46,1.89,2.34,4.22,3.64,6.72-5.07,1.65-3.49,6.52-3.28,11.21,3.58,1.14,5.94.18,6.33-3.53.45-4.34.22-8.75.75-13.07.19-1.57,1.71-2.98,2.62-4.46.71,1.46,1.97,2.9,2.04,4.4.25,5.44.1,10.9.1,16.92,8.63-.06,2.57-10.14,9.18-12.27.26,2.47.16,4.7.78,6.7.65,2.09,1.75,5.43,3.08,5.65,3.9.66,3.68-2.93,3.96-5.6.22-2.07.42-4.15.73-7.31,7.5,4.55,1.21,11.58,4.69,15.93,1.25-.67,2.58-1.37,3.86-2.06.46.59.93,1,.86,1.12-2.54,4.51-4.6,9.45-7.95,13.26-1.49,1.68-5.66,1.55-8.5,1.22-1.19-.14-3.29-3.46-2.87-4.39.98-2.17,3.08-3.95,5.02-5.52,1.15-.93,2.88-1.16,4.11-1.61Zm-50.99-9.93c-2.35-2.06-3.63-3.17-4.9-4.29-1.56,1.97-3.34,3.84-4.49,6.03-.2.38,2.74,3.32,3.4,3.05,1.91-.78,3.4-2.59,5.98-4.79Z"/>
  <path class="cls-1" d="m394.03,68.71c-5.47,0-10.95.11-16.42-.04-5.58-.15-8.88-3.13-8.82-7.61.07-4.88,3.4-7.87,9.09-7.91,10.58-.07,21.16-.08,31.74,0,6.14.05,9.57,2.78,9.66,7.36.1,5.18-3.48,8.15-9.93,8.2-5.11.03-10.22,0-15.33,0Z"/>
  <path class="cls-1" d="m166.15,51.19c-5.47,0-10.95.11-16.42-.04-5.57-.16-8.86-3.17-8.77-7.65.1-4.9,3.4-7.83,9.13-7.87,10.58-.06,21.16-.08,31.74,0,6.14.05,9.55,2.79,9.61,7.4.07,5.18-3.49,8.11-9.97,8.15-5.11.03-10.22,0-15.33,0Z"/>
  <path class="cls-1" d="m218.82,489.34c-5.47,0-10.95.11-16.42-.04-5.61-.15-8.91-3.1-8.87-7.57.05-4.88,3.39-7.92,9.05-7.95,10.58-.07,21.16-.08,31.74,0,6.15.05,9.59,2.75,9.71,7.31.13,5.17-3.47,8.2-9.89,8.24-5.11.03-10.22,0-15.33,0Z"/>
  <path class="cls-1" d="m26.04,333.56c5.47,0,10.95-.12,16.42.04,5.56.16,8.85,3.18,8.75,7.67-.11,4.89-3.41,7.81-9.15,7.85-10.4.06-20.8.06-31.2,0-6.59-.04-10.08-2.68-10.14-7.43-.06-5.18,3.49-8.1,9.99-8.13,5.11-.03,10.22,0,15.33,0Z"/>
  <path class="cls-1" d="m131.18,316.03c5.47,0,10.95-.11,16.42.04,5.57.16,8.86,3.16,8.77,7.65-.1,4.9-3.4,7.84-9.13,7.87-10.58.06-21.16.08-31.74,0-6.17-.05-9.55-2.77-9.62-7.4-.08-5.18,3.49-8.12,9.97-8.16,5.11-.03,10.22,0,15.33,0Z"/>
  <path class="cls-1" d="m411.6,138.82c-5.47,0-10.95.11-16.42-.04-5.61-.15-8.91-3.1-8.87-7.57.05-4.88,3.39-7.92,9.05-7.95,10.58-.07,21.16-.08,31.74,0,6.15.05,9.59,2.75,9.71,7.31.13,5.17-3.47,8.2-9.89,8.24-5.11.03-10.22,0-15.33,0Z"/>
  <path class="cls-1" d="m148.7,349.13c-5.47,0-10.95.11-16.42-.04-5.6-.15-8.9-3.1-8.85-7.58.05-4.88,3.39-7.91,9.06-7.94,10.58-.07,21.16-.08,31.74,0,6.14.05,9.58,2.76,9.7,7.32.13,5.17-3.47,8.19-9.9,8.23-5.11.03-10.22,0-15.33,0Z"/>
  <path class="cls-1" d="m306.4,279.03c-5.47,0-10.95.11-16.42-.04-5.58-.15-8.88-3.14-8.82-7.61.07-4.88,3.4-7.87,9.09-7.91,10.58-.06,21.16-.08,31.74,0,6.14.05,9.57,2.78,9.66,7.36.1,5.17-3.48,8.15-9.93,8.19-5.11.03-10.22,0-15.33,0Z"/>
  <path class="cls-1" d="m25.98,245.93c5.47,0,10.95-.11,16.42.04,5.59.15,8.89,3.13,8.82,7.61-.07,4.88-3.4,7.88-9.09,7.91-10.58.07-21.16.08-31.74,0-6.14-.05-9.57-2.77-9.66-7.35-.11-5.17,3.48-8.16,9.93-8.2,5.11-.03,10.22,0,15.33,0Z"/>
  <path class="cls-1" d="m306.87,261.5c-5.47,0-10.95.09-16.42-.03-6-.12-9.4-3.04-9.28-7.7.12-4.9,3.41-7.8,9.16-7.83,10.58-.06,21.16-.08,31.74.01,6.13.05,9.53,2.82,9.58,7.43.05,5.03-3.43,8.05-9.45,8.12-5.11.05-10.22.01-15.32,0Z"/>
  <path class="cls-1" d="m551.23,298.5c5.66,0,11.31-.11,16.97.04,5.58.15,8.88,3.14,8.81,7.62-.08,4.89-3.4,7.87-9.1,7.9-10.58.06-21.16.08-31.74,0-6.13-.05-9.56-2.78-9.65-7.36-.1-5.18,3.48-8.15,9.94-8.19,4.93-.03,9.85,0,14.78,0Z"/>
  <path class="cls-1" d="m464.14,245.93c5.47,0,10.95-.11,16.42.04,5.58.15,8.88,3.14,8.82,7.61-.07,4.88-3.4,7.87-9.09,7.91-10.58.06-21.16.08-31.74,0-6.14-.05-9.57-2.78-9.66-7.36-.1-5.17,3.48-8.15,9.93-8.19,5.11-.03,10.22,0,15.33,0Z"/>
  <path class="cls-1" d="m96.44,366.64c-5.66,0-11.32.13-16.97-.04-5.55-.17-8.78-3.25-8.6-7.8.19-4.71,3.39-7.66,8.73-7.7,10.76-.08,21.53-.09,32.29,0,6.07.06,9.47,2.91,9.44,7.55-.03,5.03-3.47,7.94-9.57,7.99-5.11.05-10.22,0-15.32,0v-.02Z"/>
  <path class="cls-1" d="m26.02,193.35c5.47,0,10.95-.11,16.42.04,5.57.16,8.87,3.16,8.78,7.65-.1,4.9-3.4,7.84-9.12,7.87-10.58.06-21.16.08-31.74,0-6.15-.05-9.55-2.78-9.62-7.39-.08-5.18,3.49-8.12,9.97-8.16,5.11-.03,10.22,0,15.33,0Z"/>
  <path class="cls-1" d="m516.85,438.73c5.47,0,10.95-.13,16.42.04,5.58.17,8.82,3.2,8.67,7.74-.15,4.71-3.36,7.72-8.67,7.76-10.95.08-21.89.11-32.84-.02-5.64-.07-8.95-3.02-8.96-7.47-.01-4.88,3.36-7.97,8.96-8.05,5.47-.08,10.95-.02,16.42-.02v.02Z"/>
  <path class="cls-1" d="m323.93,16.13c-5.47,0-10.95.11-16.42-.04-5.59-.15-8.89-3.13-8.82-7.61.07-4.88,3.4-7.87,9.09-7.91,10.58-.07,21.16-.08,31.74,0,6.14.05,9.57,2.78,9.66,7.36.1,5.17-3.48,8.15-9.93,8.2-5.11.03-10.22,0-15.33,0Z"/>
  <path class="cls-1" d="m26.1,263.45c5.29,0,10.58-.09,15.87.03,5.99.13,9.38,3.06,9.24,7.74-.15,4.89-3.43,7.76-9.2,7.79-10.58.06-21.16.08-31.74-.01-6.11-.05-9.51-2.84-9.53-7.47-.02-5.02,3.45-8.02,9.49-8.07,5.29-.05,10.58-.01,15.87,0Z"/>
  <path class="cls-1" d="m411.56,526.34c5.47,0,10.95-.11,16.42.04,5.58.15,8.88,3.14,8.82,7.61-.07,4.88-3.4,7.87-9.09,7.91-10.58.06-21.16.08-31.74,0-6.14-.05-9.57-2.78-9.66-7.36-.1-5.17,3.48-8.15,9.93-8.19,5.11-.03,10.22,0,15.33,0Z"/>
  <path class="cls-1" d="m446.75,561.41c5.47,0,10.95-.13,16.42.04,5.58.17,8.82,3.2,8.67,7.74-.15,4.71-3.36,7.72-8.67,7.76-10.95.08-21.89.11-32.84-.02-5.64-.07-8.95-3.02-8.96-7.47-.01-4.87,3.36-7.97,8.96-8.05,5.47-.08,10.95-.02,16.42-.02v.02Z"/>
  <path class="cls-1" d="m236.36,68.71c-5.47,0-10.95.11-16.42-.04-5.61-.15-8.92-3.08-8.89-7.55.03-4.9,3.36-7.94,9.03-7.97,10.58-.07,21.16-.08,31.74,0,6.43.05,9.89,2.96,9.69,7.84-.21,5.01-3.56,7.67-9.83,7.71-5.11.03-10.22,0-15.33,0Z"/>
  <path class="cls-1" d="m200.71,351.08c5.66,0,11.31-.11,16.97.04,5.58.15,8.88,3.14,8.81,7.62-.08,4.89-3.4,7.87-9.1,7.9-10.58.06-21.16.08-31.74,0-6.13-.05-9.56-2.78-9.65-7.36-.1-5.18,3.48-8.15,9.94-8.19,4.93-.03,9.85,0,14.78,0Z"/>
  <path class="cls-1" d="m332.65,421.26c2.92,0,5.85-.2,8.75.05,4.51.38,7.61,2.6,7.73,7.49.12,4.52-3.12,7.79-7.92,7.92-5.65.15-11.31.18-16.96-.06-5.13-.22-8.21-3.43-8.02-7.78.2-4.54,3.28-7.48,8.21-7.67,2.73-.11,5.47-.02,8.21-.02,0,.02,0,.05,0,.07Z"/>
  <path class="cls-1" d="m69.86,436.69c-2.92,0-5.85.19-8.75-.04-4.51-.37-7.61-2.58-7.76-7.47-.13-4.51,3.11-7.81,7.9-7.94,5.65-.15,11.31-.18,16.96.06,5.14.22,8.22,3.41,8.04,7.76-.19,4.52-3.3,7.5-8.19,7.69-2.73.11-5.47.02-8.21.02,0-.02,0-.05,0-.07Z"/>
  <path class="cls-1" d="m122.34,191.32c-2.92,0-5.85.21-8.75-.05-4.5-.4-7.58-2.65-7.66-7.56-.07-4.53,3.16-7.72,7.99-7.85,5.47-.15,10.95-.16,16.41.02,5.25.17,8.46,3.1,8.52,7.35.07,4.86-3.33,8.02-8.87,8.15-2.55.06-5.11.01-7.66.01,0-.03,0-.06,0-.08Z"/>
  <path class="cls-1" d="m17.3,436.65c-3.1,0-6.23.27-9.29-.07-4.25-.47-7.13-2.78-7.24-7.39-.11-4.51,3.11-7.82,7.89-7.95,5.65-.15,11.31-.18,16.96.06,5.14.21,8.23,3.39,8.06,7.74-.18,4.52-3.29,7.51-8.17,7.7-2.73.11-5.47.02-8.21.02v-.11Z"/>
  <path class="cls-1" d="m560.44,403.77c3.1,0,6.23-.27,9.29.06,4.26.46,7.13,2.77,7.25,7.38.12,4.51-3.11,7.83-7.88,7.97-5.47.16-10.95.16-16.41,0-5.56-.17-8.79-3.24-8.62-7.78.18-4.71,3.38-7.59,8.7-7.74,2.55-.07,5.11-.01,7.66-.01,0,.04,0,.08,0,.12Z"/>
  <path class="cls-1" d="m315.13,419.16c-2.92,0-5.85.21-8.75-.05-4.5-.41-7.58-2.65-7.65-7.56-.07-4.53,3.16-7.72,7.99-7.85,5.47-.15,10.95-.16,16.41.02,5.25.17,8.46,3.1,8.52,7.35.07,4.86-3.33,8.02-8.87,8.15-2.55.06-5.11.01-7.66.01,0-.03,0-.06,0-.08Z"/>
  <path class="cls-1" d="m315.25,173.75c-3.1,0-6.23.27-9.29-.07-4.26-.47-7.13-2.78-7.24-7.39-.11-4.51,3.11-7.83,7.89-7.96,5.65-.16,11.31-.18,16.96.06,5.15.21,8.23,3.39,8.06,7.74-.18,4.52-3.28,7.51-8.17,7.71-2.73.11-5.47.02-8.21.02,0-.04,0-.07,0-.11Z"/>
  <path class="cls-1" d="m490.34,175.94c3.1,0,6.23-.27,9.29.07,4.25.47,7.13,2.78,7.24,7.39.11,4.51-3.11,7.83-7.89,7.96-5.65.16-11.31.18-16.96-.05-5.14-.21-8.23-3.39-8.06-7.74.18-4.52,3.28-7.51,8.17-7.71,2.73-.11,5.47-.02,8.21-.02,0,.04,0,.07,0,.11Z"/>
  <path class="cls-1" d="m209.96,158.37c2.92,0,5.85-.2,8.75.05,4.51.38,7.61,2.6,7.74,7.49.12,4.52-3.12,7.79-7.92,7.92-5.65.15-11.31.18-16.96-.06-5.13-.22-8.21-3.42-8.02-7.77.2-4.52,3.29-7.48,8.2-7.67,2.73-.11,5.47-.02,8.21-.02,0,.02,0,.05,0,.07Z"/>
  <path class="cls-1" d="m139.99,403.79c3.1,0,6.24-.31,9.29.07,4.24.53,7.22,2.91,7.03,7.53-.19,4.56-2.65,7.61-7.46,7.77-5.83.19-11.68.2-17.5-.05-4.51-.19-7.66-2.47-7.88-7.35-.22-4.68,3.19-7.9,8.33-8.09,2.73-.1,5.47-.02,8.21-.02,0,.04,0,.08,0,.13Z"/>
  <path class="cls-1" d="m34.72,173.79c-2.92,0-5.85.21-8.75-.05-4.5-.4-7.59-2.65-7.66-7.55-.07-4.53,3.16-7.72,7.99-7.85,5.47-.15,10.95-.16,16.41.02,5.51.19,8.73,3.33,8.49,7.89-.24,4.68-3.46,7.48-8.82,7.62-2.55.06-5.11.01-7.66.01,0-.03,0-.06,0-.08Z"/>
  <path class="cls-1" d="m87.36,193.43c2.92,0,5.85-.21,8.75.05,4.5.4,7.58,2.65,7.65,7.56.07,4.53-3.16,7.72-7.99,7.85-5.47.15-10.95.16-16.41-.02-5.25-.17-8.46-3.1-8.52-7.35-.07-4.86,3.33-8.02,8.87-8.15,2.55-.06,5.11-.01,7.66-.01,0,.03,0,.06,0,.08Z"/>
  <path class="cls-1" d="m192.45,208.84c-2.92,0-5.85.21-8.75-.05-4.5-.4-7.58-2.65-7.65-7.56-.07-4.53,3.16-7.72,7.99-7.85,5.47-.15,10.95-.16,16.41.02,5.25.17,8.46,3.1,8.52,7.35.07,4.86-3.33,8.02-8.87,8.15-2.55.06-5.11.01-7.66.01,0-.03,0-.06,0-.08Z"/>
  <path class="cls-1" d="m87.21,403.77c3.1,0,6.22-.23,9.29.05,4.7.44,7.68,3.75,7.23,7.91-.49,4.57-3,7.38-7.8,7.47-5.47.1-10.95.15-16.41-.02-5.57-.17-8.8-3.22-8.65-7.75.16-4.71,3.37-7.61,8.68-7.76,2.55-.07,5.11-.01,7.66-.01,0,.04,0,.08,0,.11Z"/>
  <path class="cls-1" d="m350.22,208.85c-2.92,0-5.85.2-8.75-.05-4.5-.39-7.6-2.62-7.7-7.52-.09-4.52,3.14-7.76,7.95-7.89,5.65-.15,11.31-.18,16.96.07,5.12.22,8.19,3.45,7.98,7.81-.22,4.51-3.32,7.45-8.24,7.64-2.73.1-5.47.02-8.21.02,0-.02,0-.05,0-.07Z"/>
  <path class="cls-1" d="m402.87,208.81c-3.1,0-6.23.27-9.29-.07-4.25-.47-7.13-2.78-7.24-7.39-.11-4.51,3.11-7.82,7.89-7.95,5.65-.15,11.31-.18,16.96.06,5.14.21,8.23,3.39,8.06,7.74-.18,4.52-3.29,7.51-8.17,7.7-2.73.11-5.47.02-8.21.02,0-.04,0-.07,0-.11Z"/>
  <path class="cls-1" d="m472.93,208.85c-2.92,0-5.85.2-8.75-.05-4.51-.38-7.6-2.6-7.72-7.5-.11-4.52,3.13-7.78,7.93-7.91,5.65-.15,11.31-.18,16.96.06,5.12.22,8.2,3.43,8.01,7.78-.2,4.52-3.31,7.47-8.21,7.66-2.73.11-5.47.02-8.21.02,0-.02,0-.05,0-.07Z"/>
  <path class="cls-1" d="m437.77,156.22c-3.1,0-6.24.3-9.29-.07-4.24-.52-7.22-2.9-7.04-7.52.18-4.56,2.63-7.62,7.45-7.78,5.83-.19,11.68-.21,17.5.05,5.09.22,8.15,3.52,7.9,7.88-.26,4.5-3.37,7.38-8.31,7.56-2.73.1-5.47.02-8.21.02,0-.04,0-.08,0-.13Z"/>
  <path class="cls-1" d="m350.37,156.23c-3.1,0-6.22.23-9.29-.05-4.7-.43-7.7-3.73-7.26-7.88.48-4.57,2.97-7.4,7.78-7.49,5.65-.1,11.31-.17,16.96.06,5.18.21,8.27,3.33,8.13,7.68-.14,4.71-3.36,7.64-8.65,7.79-2.55.07-5.11.01-7.66.01,0-.04,0-.07,0-.11Z"/>
  <path class="cls-1" d="m508.01,456.36c3.1,0,6.24-.3,9.29.07,4.24.52,7.23,2.88,7.06,7.51-.17,4.56-2.62,7.63-7.43,7.8-5.83.2-11.68.21-17.5-.04-5.09-.22-8.16-3.51-7.91-7.86.25-4.5,3.37-7.4,8.3-7.57,2.73-.1,5.47-.02,8.21-.02,0,.04,0,.08,0,.12Z"/>
  <path class="cls-1" d="m157.84,489.21c-3.28,0-6.6.32-9.83-.08-4.23-.53-7.2-2.94-6.97-7.57.22-4.57,2.7-7.58,7.51-7.72,5.83-.17,11.68-.2,17.5.06,4.51.2,7.64,2.51,7.83,7.39.18,4.69-3.21,7.86-8.38,8.04-2.55.09-5.11.02-7.66.02,0-.04,0-.09,0-.13Z"/>
  <path class="cls-1" d="m280.09,226.37c-2.92,0-5.85.21-8.75-.05-4.5-.4-7.59-2.65-7.66-7.55-.07-4.53,3.16-7.72,7.99-7.85,5.47-.15,10.95-.16,16.41.02,5.51.19,8.73,3.33,8.49,7.89-.24,4.68-3.46,7.48-8.82,7.62-2.55.06-5.11.01-7.66.01,0-.03,0-.06,0-.08Z"/>
  <path class="cls-1" d="m420.73,489.21c-3.28,0-6.6.32-9.83-.08-4.23-.53-7.2-2.94-6.97-7.57.22-4.57,2.7-7.58,7.51-7.72,5.83-.17,11.68-.2,17.5.06,4.51.2,7.64,2.51,7.83,7.39.18,4.69-3.21,7.86-8.38,8.04-2.55.09-5.11.02-7.66.02,0-.04,0-.09,0-.13Z"/>
  <path class="cls-1" d="m560.45,473.88c3.1,0,6.23-.27,9.29.07,4.26.47,7.13,2.78,7.24,7.39.11,4.51-3.11,7.82-7.89,7.96-5.65.16-11.31.18-16.96-.06-5.14-.21-8.23-3.39-8.06-7.74.18-4.52,3.28-7.51,8.17-7.71,2.73-.11,5.47-.02,8.21-.02,0,.04,0,.07,0,.11Z"/>
  <path class="cls-1" d="m560.88,226.31c-3.28,0-6.61.33-9.83-.08-4.23-.55-7.17-2.99-6.92-7.62.25-4.57,2.76-7.54,7.57-7.68,5.65-.17,11.31-.17,16.96.02,5.2.18,8.37,3.22,8.35,7.49-.02,4.7-3.28,7.81-8.47,7.99-2.55.09-5.11.02-7.66.02,0-.05,0-.09,0-.14Z"/>
  <path class="cls-1" d="m17.16,243.85c-3.1,0-6.24.3-9.29-.07-4.24-.52-7.23-2.88-7.06-7.51.17-4.56,2.62-7.63,7.43-7.8,5.83-.2,11.68-.21,17.5.04,5.09.22,8.16,3.51,7.91,7.86-.25,4.5-3.37,7.4-8.3,7.57-2.73.1-5.47.02-8.21.02,0-.04,0-.08,0-.12Z"/>
  <path class="cls-1" d="m69.9,228.53c3.1,0,6.24-.31,9.29.07,4.24.53,7.21,2.92,7.01,7.54-.2,4.56-2.66,7.61-7.47,7.76-5.83.19-11.68.2-17.5-.05-4.51-.19-7.65-2.48-7.87-7.36-.21-4.68,3.2-7.89,8.34-8.08,2.73-.1,5.47-.02,8.21-.02,0,.04,0,.09,0,.13Z"/>
  <path class="cls-1" d="m140.04,243.86c-3.1,0-6.22.23-9.29-.05-4.7-.44-7.69-3.74-7.25-7.89.48-4.57,2.99-7.4,7.79-7.48,5.65-.1,11.31-.17,16.96.06,5.17.21,8.26,3.34,8.12,7.69-.15,4.71-3.36,7.63-8.67,7.78-2.55.07-5.11.01-7.66.01,0-.04,0-.08,0-.11Z"/>
  <path class="cls-1" d="m227.57,491.42c3.1,0,6.23-.3,9.29.07,4.24.51,7.24,2.87,7.07,7.49-.16,4.56-2.6,7.64-7.42,7.81-5.83.2-11.68.21-17.5-.04-5.1-.22-8.17-3.49-7.93-7.85.24-4.51,3.35-7.41,8.28-7.59,2.73-.1,5.47-.02,8.21-.02,0,.04,0,.08,0,.12Z"/>
  <path class="cls-1" d="m227.77,243.87c-3.1,0-6.22.22-9.29-.05-4.72-.41-7.75-3.66-7.36-7.8.43-4.57,2.89-7.46,7.69-7.58,5.65-.13,11.31-.17,16.96.05,5.18.2,8.31,3.28,8.23,7.6-.09,4.71-3.32,7.71-8.57,7.88-2.55.08-5.11.01-7.66.01v-.1Z"/>
  <path class="cls-1" d="m297.64,228.48c2.92,0,5.85-.21,8.75.05,4.5.39,7.59,2.63,7.69,7.53.09,4.53-3.14,7.74-7.96,7.88-5.47.15-10.95.16-16.41-.02-5.52-.18-8.74-3.32-8.52-7.87.23-4.68,3.44-7.5,8.8-7.64,2.55-.06,5.11-.01,7.66-.01,0,.03,0,.05,0,.08Z"/>
  <path class="cls-1" d="m174.87,508.93c3.1,0,6.23-.27,9.29.07,4.25.47,7.13,2.78,7.24,7.39.11,4.51-3.11,7.83-7.89,7.96-5.65.16-11.31.18-16.96-.05-5.14-.21-8.23-3.39-8.06-7.74.18-4.52,3.28-7.51,8.17-7.71,2.73-.11,5.47-.02,8.21-.02,0,.04,0,.07,0,.11Z"/>
  <path class="cls-1" d="m17.15,401.58c-3.1,0-6.24.3-9.29-.07-4.24-.52-7.22-2.9-7.04-7.52.18-4.56,2.63-7.62,7.45-7.78,5.83-.19,11.68-.21,17.5.05,5.09.22,8.15,3.52,7.9,7.88-.26,4.5-3.37,7.38-8.31,7.56-2.73.1-5.47.02-8.21.02,0-.04,0-.08,0-.13Z"/>
  <path class="cls-1" d="m525.72,243.87c-3.1,0-6.22.22-9.29-.05-4.72-.41-7.75-3.66-7.36-7.8.43-4.57,2.89-7.46,7.69-7.58,5.65-.13,11.31-.17,16.96.05,5.18.2,8.31,3.28,8.23,7.6-.09,4.71-3.32,7.71-8.57,7.88-2.55.08-5.11.01-7.66.01,0-.03,0-.07,0-.1Z"/>
  <path class="cls-1" d="m227.73,524.29c-3.1,0-6.22.22-9.29-.05-4.71-.42-7.73-3.69-7.32-7.84.45-4.57,2.93-7.44,7.73-7.54,5.65-.12,11.31-.17,16.96.05,5.2.2,8.29,3.29,8.19,7.63-.11,4.71-3.33,7.68-8.61,7.84-2.55.08-5.11.01-7.66.01,0-.04,0-.07,0-.11Z"/>
  <path class="cls-1" d="m367.64,524.26c-3.1,0-6.24.31-9.29-.07-4.24-.53-7.21-2.92-7.01-7.54.2-4.56,2.66-7.61,7.47-7.76,5.83-.19,11.68-.2,17.5.05,4.51.19,7.65,2.48,7.87,7.36.21,4.68-3.2,7.89-8.34,8.08-2.73.1-5.47.02-8.21.02,0-.04,0-.09,0-.13Z"/>
  <path class="cls-1" d="m52.1,384.05c-3.1,0-6.24.32-9.29-.08-4.23-.56-7.18-2.97-6.94-7.61.24-4.57,2.73-7.56,7.54-7.7,5.83-.16,11.68-.2,17.5.07,4.51.21,7.63,2.53,7.8,7.42.16,4.69-3.23,7.83-8.41,8.01-2.73.09-5.47.02-8.21.02,0-.04,0-.09,0-.13Z"/>
  <path class="cls-1" d="m560.44,351.2c3.1,0,6.23-.27,9.29.06,4.26.46,7.13,2.77,7.25,7.38.12,4.51-3.11,7.83-7.88,7.97-5.47.16-10.95.16-16.41,0-5.56-.17-8.79-3.24-8.62-7.78.18-4.71,3.38-7.59,8.7-7.74,2.55-.07,5.11-.01,7.66-.01,0,.04,0,.08,0,.12Z"/>
  <path class="cls-1" d="m210.01,246c2.92,0,5.85-.21,8.75.05,4.5.39,7.59,2.63,7.69,7.53.09,4.53-3.14,7.74-7.96,7.88-5.47.15-10.95.16-16.41-.02-5.52-.18-8.74-3.32-8.52-7.87.23-4.68,3.44-7.5,8.8-7.64,2.55-.06,5.11-.01,7.66-.01,0,.03,0,.05,0,.08Z"/>
  <path class="cls-1" d="m438.39,524.31c-3.1,0-6.22.21-9.3-.05-4.51-.38-7.59-2.63-7.69-7.53-.09-4.53,3.14-7.74,7.96-7.87,5.47-.15,10.95-.16,16.41.02,5.52.18,8.74,3.32,8.51,7.87-.23,4.68-3.45,7.5-8.8,7.64-2.37.06-4.74.01-7.11.01,0-.03,0-.05,0-.08Z"/>
  <path class="cls-1" d="m490.69,524.29c-3.1,0-6.22.22-9.29-.05-4.72-.41-7.76-3.64-7.39-7.78.42-4.57,2.87-7.48,7.67-7.6,5.65-.14,11.31-.17,16.96.04,5.18.19,8.33,3.27,8.26,7.57-.08,4.71-3.3,7.74-8.55,7.9-2.55.08-5.11.01-7.66.01,0-.03,0-.07,0-.1Z"/>
  <path class="cls-1" d="m157.57,526.48c3.1,0,6.24-.32,9.29.08,4.23.55,7.2,2.95,6.97,7.58-.22,4.57-2.7,7.58-7.51,7.73-5.83.17-11.68.2-17.5-.06-4.51-.2-7.64-2.51-7.83-7.39-.18-4.69,3.21-7.86,8.38-8.04,2.73-.09,5.47-.02,8.21-.02v.13Z"/>
  <path class="cls-1" d="m297.6,88.26c2.92,0,5.85-.2,8.75.05,4.51.38,7.6,2.6,7.73,7.5.11,4.52-3.12,7.78-7.93,7.91-5.65.15-11.31.18-16.96-.06-5.13-.22-8.21-3.43-8.01-7.78.2-4.52,3.3-7.47,8.21-7.66,2.73-.11,5.47-.02,8.21-.02,0,.02,0,.05,0,.07Z"/>
  <path class="cls-1" d="m245.02,103.64c-3.1,0-6.23.3-9.29-.07-4.24-.51-7.24-2.88-7.07-7.5.16-4.56,2.61-7.64,7.42-7.81,5.83-.2,11.68-.21,17.5.04,5.1.22,8.16,3.5,7.93,7.85-.25,4.5-3.35,7.41-8.28,7.59-2.73.1-5.47.02-8.21.02,0-.04,0-.08,0-.12Z"/>
  <path class="cls-1" d="m17.26,351.21c3.1,0,6.23-.3,9.29.07,4.24.51,7.24,2.87,7.08,7.49-.16,4.56-2.6,7.64-7.41,7.81-5.83.2-11.68.21-17.5-.04-5.1-.22-8.17-3.49-7.93-7.85.24-4.51,3.34-7.41,8.28-7.59,2.73-.1,5.47-.02,8.21-.02,0,.04,0,.08,0,.12Z"/>
  <path class="cls-1" d="m209.98,541.84c-2.92,0-5.85.21-8.75-.05-4.5-.4-7.59-2.65-7.66-7.55-.07-4.53,3.16-7.72,7.99-7.85,5.47-.15,10.95-.16,16.41.02,5.51.19,8.73,3.33,8.49,7.89-.24,4.68-3.46,7.48-8.82,7.62-2.55.06-5.11.01-7.66.01,0-.03,0-.06,0-.08Z"/>
  <path class="cls-1" d="m402.88,86.12c-3.1,0-6.23.27-9.29-.07-4.26-.47-7.13-2.78-7.24-7.39-.11-4.51,3.11-7.83,7.89-7.96,5.65-.16,11.31-.18,16.96.06,5.15.21,8.23,3.39,8.06,7.74-.18,4.52-3.28,7.51-8.17,7.71-2.73.11-5.47.02-8.21.02,0-.04,0-.07,0-.11Z"/>
  <path class="cls-1" d="m315.1,86.11c-3.1,0-6.24.3-9.29-.07-4.24-.52-7.23-2.89-7.05-7.51.17-4.56,2.62-7.63,7.44-7.79,5.83-.2,11.68-.21,17.5.04,5.09.22,8.16,3.51,7.91,7.87-.25,4.5-3.37,7.39-8.3,7.57-2.73.1-5.47.02-8.21.02,0-.04,0-.08,0-.12Z"/>
  <path class="cls-1" d="m157.39,53.21c2.92,0,5.85-.2,8.75.05,4.51.38,7.61,2.6,7.73,7.49.12,4.52-3.12,7.79-7.92,7.92-5.65.15-11.31.18-16.96-.06-5.13-.22-8.21-3.43-8.02-7.78.2-4.54,3.28-7.48,8.21-7.67,2.73-.11,5.47-.02,8.21-.02,0,.02,0,.05,0,.07Z"/>
  <path class="cls-1" d="m262.54,333.63c2.92,0,5.85-.2,8.75.05,4.51.38,7.61,2.6,7.74,7.49.12,4.52-3.12,7.79-7.92,7.92-5.65.15-11.31.18-16.96-.06-5.13-.22-8.21-3.42-8.02-7.77.2-4.52,3.29-7.48,8.2-7.67,2.73-.11,5.47-.02,8.21-.02,0,.02,0,.05,0,.07Z"/>
  <path class="cls-1" d="m210.55,559.37c-3.1,0-6.22.21-9.3-.05-4.51-.38-7.59-2.63-7.68-7.53-.08-4.53,3.15-7.74,7.97-7.87,5.47-.15,10.95-.16,16.41.02,5.52.19,8.74,3.32,8.51,7.87-.23,4.68-3.45,7.5-8.8,7.64-2.37.06-4.74.01-7.11.01,0-.03,0-.05,0-.08Z"/>
  <path class="cls-1" d="m455.51,278.92c-3.1,0-6.22.23-9.29-.05-4.7-.44-7.69-3.74-7.25-7.89.48-4.57,2.99-7.4,7.79-7.48,5.65-.1,11.31-.17,16.96.06,5.17.21,8.26,3.34,8.12,7.69-.15,4.71-3.36,7.63-8.67,7.78-2.55.07-5.11.01-7.66.01,0-.04,0-.08,0-.11Z"/>
  <path class="cls-1" d="m262.54,35.68c2.92,0,5.85-.2,8.75.05,4.51.38,7.61,2.59,7.74,7.49.12,4.52-3.12,7.8-7.91,7.92-5.65.15-11.31.18-16.96-.06-5.13-.22-8.21-3.42-8.03-7.77.19-4.51,3.3-7.48,8.2-7.68,2.73-.11,5.47-.02,8.21-.02,0,.02,0,.05,0,.07Z"/>
  <path class="cls-1" d="m385.54,33.56c-3.1,0-6.22.21-9.29-.05-4.73-.41-7.77-3.64-7.39-7.77.41-4.57,2.86-7.48,7.66-7.61,5.65-.14,11.31-.17,16.96.04,5.19.19,8.33,3.27,8.27,7.57-.07,4.72-3.29,7.74-8.54,7.91-2.55.08-5.11.01-7.66.01,0-.03,0-.07,0-.1Z"/>
  <path class="cls-1" d="m332.6,33.53c-3.1,0-6.24.31-9.29-.07-4.24-.53-7.22-2.91-7.03-7.53.19-4.56,2.65-7.61,7.46-7.77,5.83-.19,11.68-.2,17.5.05,4.51.19,7.66,2.47,7.88,7.35.22,4.68-3.19,7.9-8.33,8.09-2.73.1-5.47.02-8.21.02,0-.04,0-.08,0-.13Z"/>
  <path class="cls-1" d="m104.75,296.42c-3.1,0-6.24.31-9.29-.07-4.24-.53-7.21-2.92-7.01-7.54.2-4.56,2.66-7.61,7.47-7.76,5.83-.19,11.68-.2,17.5.05,4.51.19,7.65,2.48,7.87,7.36.21,4.68-3.2,7.89-8.34,8.08-2.73.1-5.47.02-8.21.02,0-.04,0-.09,0-.13Z"/>
  <path class="cls-1" d="m402.77,316.1c2.92,0,5.85-.2,8.75.05,4.51.38,7.6,2.61,7.72,7.5.11,4.52-3.13,7.78-7.93,7.91-5.65.15-11.31.18-16.96-.06-5.12-.22-8.2-3.43-8.01-7.79.2-4.52,3.31-7.47,8.22-7.66,2.73-.11,5.47-.02,8.21-.02,0,.02,0,.05,0,.07Z"/>
  <path class="cls-1" d="m193.13,331.49c-3.28,0-6.59.27-9.84-.07-4.26-.44-7.14-2.76-7.26-7.37-.12-4.51,3.1-7.83,7.87-7.98,5.47-.16,10.95-.16,16.41,0,5.56.17,8.8,3.23,8.63,7.77-.17,4.71-3.38,7.59-8.7,7.74-2.37.07-4.74.01-7.11.01,0-.04,0-.08,0-.12Z"/>
  <path class="cls-1" d="m368.2,559.32c-3.28,0-6.6.31-9.84-.08-4.24-.51-7.22-2.9-7.02-7.53.19-4.56,2.65-7.61,7.46-7.77,5.83-.19,11.68-.2,17.5.05,4.51.19,7.66,2.48,7.88,7.35.22,4.68-3.19,7.9-8.33,8.09-2.55.09-5.11.02-7.66.02,0-.04,0-.08,0-.13Z"/>
  <path class="cls-1" d="m227.6,18.21c3.1,0,6.24-.3,9.29.07,4.24.52,7.23,2.89,7.05,7.51-.17,4.56-2.62,7.63-7.44,7.79-5.83.2-11.68.21-17.5-.04-5.09-.22-8.16-3.51-7.91-7.87.25-4.5,3.37-7.39,8.3-7.57,2.73-.1,5.47-.02,8.21-.02,0,.04,0,.08,0,.12Z"/>
  <path class="cls-1" d="m69.66,331.47c-3.1,0-6.24.32-9.29-.08-4.23-.55-7.2-2.94-6.98-7.58.22-4.57,2.7-7.58,7.51-7.73,5.83-.17,11.68-.2,17.5.06,4.51.2,7.64,2.51,7.83,7.39.18,4.69-3.21,7.86-8.38,8.04-2.73.09-5.47.02-8.21.02,0-.04,0-.09,0-.13Z"/>
  <path class="cls-1" d="m175.03,576.86c-3.1,0-6.23.27-9.29-.07-4.25-.47-7.13-2.79-7.23-7.4-.11-4.52,3.11-7.82,7.9-7.95,5.65-.15,11.31-.18,16.96.06,5.14.21,8.23,3.4,8.05,7.75-.18,4.52-3.29,7.51-8.18,7.7-2.73.11-5.47.02-8.21.02,0-.04,0-.07,0-.11Z"/>
  <path class="cls-1" d="m472.75,313.95c-3.1,0-6.24.32-9.29-.08-4.23-.55-7.19-2.95-6.96-7.59.23-4.57,2.71-7.58,7.52-7.72,5.83-.17,11.68-.2,17.5.07,4.51.21,7.64,2.52,7.82,7.4.18,4.69-3.22,7.85-8.39,8.03-2.73.09-5.47.02-8.21.02,0-.04,0-.09,0-.13Z"/>
  <path class="cls-1" d="m367.79,314.01c-2.92,0-5.85.2-8.75-.05-4.51-.38-7.61-2.6-7.73-7.49-.12-4.52,3.12-7.79,7.92-7.92,5.65-.15,11.31-.18,16.96.06,5.13.22,8.21,3.43,8.02,7.78-.2,4.54-3.28,7.48-8.21,7.67-2.73.11-5.47.02-8.21.02,0-.02,0-.05,0-.07Z"/>
  <path class="cls-1" d="m315.03,576.84c-3.1,0-6.24.32-9.29-.08-4.23-.55-7.2-2.95-6.97-7.58.22-4.57,2.7-7.58,7.51-7.73,5.83-.17,11.68-.2,17.5.06,4.51.2,7.64,2.51,7.83,7.39.18,4.69-3.21,7.86-8.38,8.04-2.73.09-5.47.02-8.21.02,0-.04,0-.09,0-.13Z"/>
  <path class="cls-1" d="m297.99,313.94c-3.28,0-6.61.33-9.83-.08-4.23-.55-7.17-2.99-6.92-7.62.25-4.57,2.76-7.54,7.57-7.68,5.65-.17,11.31-.17,16.96.02,5.2.18,8.37,3.22,8.35,7.49-.02,4.7-3.28,7.81-8.47,7.99-2.55.09-5.11.01-7.66.01,0-.05,0-.09,0-.14Z"/>
  <path class="cls-1" d="m261.54,306.13c-.05,4.31-3.39,7.86-7.41,7.88-4.54.02-8.18-3.55-7.99-7.83.2-4.36,3.59-7.71,7.67-7.59,4.33.13,7.78,3.5,7.74,7.54Z"/>
  <path class="cls-1" d="m103.82,305.92c.06,4.26-3.25,7.98-7.23,8.1-4.5.14-8.3-3.39-8.21-7.64.09-4.32,3.44-7.82,7.48-7.81,4.29.01,7.9,3.35,7.96,7.35Z"/>
  <path class="cls-1" d="m403.85,306.38c.09-4.32,3.44-7.82,7.48-7.81,4.55.02,8.15,3.61,7.91,7.9-.24,4.37-3.63,7.67-7.73,7.52-4.34-.16-7.75-3.55-7.66-7.6Z"/>
  <path class="cls-1" d="m43.12,298.56c4.26-.07,7.99,3.24,8.12,7.21.16,4.49-3.38,8.31-7.63,8.23-4.32-.08-7.84-3.43-7.83-7.46,0-4.29,3.33-7.91,7.33-7.98Z"/>
  <path class="cls-1" d="m464.5,296.49c-4.26.06-7.98-3.25-8.1-7.23-.14-4.5,3.39-8.3,7.64-8.21,4.32.09,7.82,3.44,7.81,7.48-.01,4.29-3.35,7.9-7.35,7.96Z"/>
  <path class="cls-1" d="m25.5,316.08c4.24-.13,8.03,3.15,8.22,7.12.21,4.47-3.29,8.36-7.52,8.34-4.3-.02-7.89-3.36-7.94-7.37-.05-4.27,3.26-7.97,7.24-8.09Z"/>
  <path class="cls-1" d="m401.77,288.32c.1,4.25-3.19,8.01-7.16,8.17-4.48.19-8.34-3.33-8.29-7.57.05-4.31,3.39-7.87,7.41-7.89,4.29-.03,7.94,3.29,8.04,7.28Z"/>
  <path class="cls-1" d="m316.22,288.86c.09-4.32,3.44-7.82,7.48-7.81,4.55.02,8.15,3.61,7.91,7.9-.24,4.37-3.63,7.67-7.73,7.52-4.34-.16-7.75-3.55-7.66-7.6Z"/>
  <path class="cls-1" d="m208.98,288.26c.14,4.24-3.14,8.03-7.1,8.23-4.47.22-8.37-3.27-8.36-7.5.01-4.29,3.35-7.9,7.35-7.96,4.26-.06,7.98,3.25,8.1,7.23Z"/>
  <path class="cls-1" d="m235.94,331.49c-4.36-.33-7.57-3.8-7.32-7.9.28-4.6,3.98-7.91,8.32-7.43,4.36.48,7.41,4.02,7.03,8.15-.4,4.35-3.92,7.49-8.02,7.17Z"/>
  <path class="cls-1" d="m270.99,331.49c-4.36-.33-7.57-3.8-7.32-7.9.28-4.6,3.98-7.91,8.32-7.43,4.36.48,7.41,4.02,7.03,8.15-.41,4.35-3.92,7.49-8.02,7.17Z"/>
  <path class="cls-1" d="m314.1,323.79c-.13,4.33-3.5,7.78-7.54,7.74-4.55-.05-8.11-3.67-7.84-7.96.28-4.37,3.69-7.63,7.79-7.44,4.36.2,7.71,3.59,7.59,7.67Z"/>
  <path class="cls-1" d="m359.2,331.53c-4.3-.02-7.9-3.35-7.95-7.36-.06-4.54,3.5-8.22,7.78-8.05,4.34.17,7.74,3.55,7.66,7.61-.09,4.32-3.45,7.82-7.48,7.8Z"/>
  <path class="cls-1" d="m166.02,281.05c4.3.04,7.87,3.38,7.9,7.4.03,4.54-3.54,8.19-7.82,8.01-4.35-.19-7.72-3.58-7.61-7.65.12-4.32,3.49-7.79,7.53-7.75Z"/>
  <path class="cls-1" d="m551.99,278.96c-4.3-.02-7.9-3.35-7.95-7.36-.06-4.54,3.5-8.22,7.78-8.06,4.34.17,7.74,3.55,7.66,7.61-.09,4.32-3.45,7.82-7.48,7.8Z"/>
  <path class="cls-1" d="m524.45,270.83c.08,4.25-3.22,7.99-7.19,8.14-4.48.17-8.32-3.37-8.25-7.61.07-4.31,3.41-7.85,7.44-7.85,4.29,0,7.92,3.31,8,7.32Z"/>
  <path class="cls-1" d="m386.36,270.88c.33-4.36,3.8-7.57,7.9-7.32,4.6.28,7.91,3.98,7.43,8.32-.48,4.36-4.02,7.41-8.15,7.03-4.35-.4-7.49-3.92-7.17-8.02Z"/>
  <path class="cls-1" d="m208.95,341.32c-.13,4.32-3.5,7.78-7.54,7.74-4.55-.05-8.11-3.67-7.84-7.96.28-4.37,3.69-7.63,7.79-7.44,4.36.2,7.71,3.59,7.59,7.67Z"/>
  <path class="cls-1" d="m366.7,270.99c0,4.29-3.33,7.91-7.33,7.98-4.53.08-8.23-3.47-8.08-7.75.15-4.33,3.53-7.76,7.58-7.68,4.32.08,7.84,3.43,7.83,7.46Z"/>
  <path class="cls-1" d="m366.71,340.98c.06,4.27-3.25,7.97-7.23,8.1-4.5.14-8.29-3.4-8.2-7.65.09-4.32,3.45-7.82,7.48-7.8,4.3.02,7.9,3.35,7.95,7.36Z"/>
  <path class="cls-1" d="m411.07,333.61c4.24-.13,8.03,3.15,8.22,7.12.21,4.47-3.29,8.36-7.52,8.34-4.3-.02-7.89-3.36-7.94-7.37-.05-4.27,3.26-7.97,7.24-8.09Z"/>
  <path class="cls-1" d="m103.79,271.15c-.09,4.32-3.44,7.82-7.48,7.81-4.55-.02-8.15-3.61-7.91-7.9.24-4.37,3.63-7.67,7.73-7.52,4.34.16,7.75,3.55,7.66,7.6Z"/>
  <path class="cls-1" d="m577.02,340.96c.07,4.26-3.24,7.99-7.21,8.12-4.49.16-8.31-3.38-8.23-7.63.08-4.32,3.43-7.84,7.46-7.83,4.29,0,7.91,3.33,7.98,7.33Z"/>
  <path class="cls-1" d="m577.01,253.56c-.06,4.31-3.4,7.86-7.43,7.87-4.54.02-8.18-3.56-7.97-7.85.21-4.36,3.59-7.7,7.68-7.58,4.33.13,7.78,3.51,7.72,7.55Z"/>
  <path class="cls-1" d="m533.86,245.98c4.26-.07,7.99,3.24,8.12,7.21.16,4.49-3.38,8.31-7.63,8.23-4.32-.08-7.84-3.43-7.83-7.46,0-4.29,3.33-7.91,7.33-7.98Z"/>
  <path class="cls-1" d="m411.78,261.43c-4.3-.02-7.9-3.35-7.95-7.36-.06-4.54,3.5-8.22,7.78-8.05,4.34.17,7.74,3.55,7.66,7.61-.09,4.32-3.45,7.82-7.48,7.8Z"/>
  <path class="cls-1" d="m279.06,358.69c-.04,4.3-3.38,7.87-7.4,7.9-4.54.03-8.19-3.54-8.01-7.82.19-4.35,3.58-7.72,7.65-7.61,4.32.12,7.79,3.49,7.75,7.53Z"/>
  <path class="cls-1" d="m261.54,253.43c.02,4.29-3.3,7.93-7.3,8.02-4.53.1-8.25-3.44-8.12-7.72.13-4.33,3.51-7.78,7.55-7.72,4.31.06,7.86,3.4,7.87,7.43Z"/>
  <path class="cls-1" d="m419.29,358.5c.06,4.26-3.25,7.98-7.23,8.1-4.5.14-8.3-3.39-8.21-7.64.09-4.32,3.44-7.82,7.48-7.81,4.29.01,7.9,3.35,7.96,7.35Z"/>
  <path class="cls-1" d="m481.93,366.59c-4.29,0-7.92-3.31-8-7.32-.09-4.53,3.46-8.24,7.74-8.1,4.33.14,7.77,3.52,7.7,7.57-.07,4.32-3.41,7.85-7.44,7.85Z"/>
  <path class="cls-1" d="m140.96,253.81c.09-4.32,3.44-7.82,7.48-7.81,4.55.02,8.15,3.61,7.91,7.9-.24,4.37-3.63,7.67-7.73,7.52-4.34-.16-7.75-3.55-7.66-7.6Z"/>
  <path class="cls-1" d="m121.34,253.35c.06,4.26-3.25,7.98-7.23,8.1-4.5.14-8.3-3.39-8.21-7.64.09-4.32,3.44-7.82,7.48-7.81,4.29.01,7.9,3.35,7.96,7.35Z"/>
  <path class="cls-1" d="m138.85,376.25c-.06,4.31-3.4,7.85-7.43,7.86-4.54.01-8.18-3.57-7.97-7.85.21-4.36,3.6-7.7,7.68-7.57,4.33.14,7.77,3.51,7.72,7.56Z"/>
  <path class="cls-1" d="m173.9,376.24c-.05,4.31-3.39,7.86-7.41,7.88-4.54.02-8.18-3.55-7.99-7.83.2-4.36,3.59-7.71,7.67-7.59,4.32.13,7.78,3.5,7.74,7.54Z"/>
  <path class="cls-1" d="m568.93,228.46c4.27-.06,7.97,3.25,8.1,7.23.14,4.5-3.4,8.29-7.65,8.2-4.32-.09-7.82-3.45-7.8-7.48.02-4.3,3.35-7.9,7.36-7.95Z"/>
  <path class="cls-1" d="m341.46,384.1c-4.33-.14-7.77-3.51-7.72-7.56.06-4.55,3.68-8.1,7.98-7.82,4.37.28,7.62,3.71,7.42,7.81-.21,4.36-3.6,7.7-7.68,7.57Z"/>
  <path class="cls-1" d="m376.35,368.68c4.31.05,7.86,3.39,7.88,7.41.02,4.54-3.55,8.18-7.83,7.99-4.36-.2-7.71-3.59-7.59-7.67.13-4.33,3.5-7.78,7.54-7.74Z"/>
  <path class="cls-1" d="m533.86,368.67c4.26-.07,7.99,3.24,8.12,7.21.16,4.49-3.38,8.31-7.63,8.23-4.32-.08-7.84-3.43-7.83-7.46,0-4.29,3.33-7.91,7.33-7.98Z"/>
  <path class="cls-1" d="m569.33,384.1c-4.32-.12-7.79-3.49-7.75-7.53.05-4.55,3.65-8.12,7.94-7.86,4.37.27,7.64,3.67,7.46,7.78-.19,4.35-3.58,7.72-7.65,7.61Z"/>
  <path class="cls-1" d="m471.83,236.23c-.16,4.34-3.55,7.75-7.6,7.66-4.56-.09-8.07-3.72-7.77-8.02.31-4.36,3.75-7.59,7.85-7.37,4.37.24,7.67,3.63,7.52,7.73Z"/>
  <path class="cls-1" d="m191.43,236.04c-.06,4.31-3.4,7.85-7.43,7.86-4.54.01-8.18-3.57-7.97-7.85.21-4.36,3.6-7.7,7.68-7.57,4.33.14,7.77,3.51,7.72,7.56Z"/>
  <path class="cls-1" d="m183.99,401.64c-4.29,0-7.92-3.31-8-7.32-.09-4.53,3.46-8.24,7.74-8.1,4.33.14,7.77,3.52,7.7,7.57-.07,4.32-3.41,7.85-7.44,7.85Z"/>
  <path class="cls-1" d="m33.7,218.39c0,4.29-3.31,7.92-7.32,8-4.53.09-8.24-3.46-8.1-7.74.14-4.33,3.52-7.77,7.57-7.7,4.32.07,7.85,3.41,7.85,7.44Z"/>
  <path class="cls-1" d="m569.52,208.85c-4.3-.02-7.9-3.35-7.95-7.36-.06-4.54,3.5-8.22,7.78-8.06,4.34.17,7.74,3.55,7.66,7.61-.09,4.32-3.45,7.82-7.48,7.8Z"/>
  <path class="cls-1" d="m411.42,386.21c4.31.06,7.85,3.4,7.86,7.43.01,4.54-3.57,8.18-7.85,7.97-4.36-.21-7.7-3.6-7.57-7.68.14-4.33,3.51-7.77,7.56-7.72Z"/>
  <path class="cls-1" d="m516.23,193.4c4.24-.13,8.03,3.15,8.22,7.12.21,4.47-3.29,8.36-7.52,8.34-4.3-.02-7.89-3.36-7.94-7.37-.05-4.27,3.26-7.97,7.24-8.09Z"/>
  <path class="cls-1" d="m534.46,401.64c-4.3-.02-7.9-3.35-7.95-7.36-.06-4.54,3.5-8.22,7.78-8.06,4.34.17,7.74,3.55,7.66,7.61-.09,4.32-3.45,7.82-7.48,7.8Z"/>
  <path class="cls-1" d="m569.44,401.63c-4.31-.06-7.86-3.4-7.87-7.43-.02-4.54,3.56-8.18,7.85-7.97,4.36.21,7.7,3.59,7.58,7.68-.13,4.33-3.51,7.78-7.55,7.72Z"/>
  <path class="cls-1" d="m244.02,200.87c0,4.29-3.32,7.92-7.32,7.99-4.53.08-8.24-3.46-8.1-7.74.15-4.33,3.52-7.76,7.57-7.7,4.32.07,7.84,3.42,7.84,7.45Z"/>
  <path class="cls-1" d="m569.01,175.89c4.29-.02,7.93,3.3,8.02,7.3.1,4.53-3.44,8.25-7.72,8.12-4.33-.13-7.78-3.51-7.72-7.55.06-4.31,3.4-7.86,7.43-7.87Z"/>
  <path class="cls-1" d="m541.95,183.45c-.05,4.31-3.39,7.86-7.41,7.88-4.54.02-8.18-3.55-7.99-7.83.2-4.36,3.59-7.71,7.67-7.59,4.33.13,7.78,3.5,7.74,7.54Z"/>
  <path class="cls-1" d="m306.75,191.34c-4.27.05-7.97-3.26-8.09-7.24-.13-4.5,3.4-8.29,7.66-8.19,4.32.1,7.81,3.46,7.79,7.49-.02,4.3-3.36,7.89-7.37,7.94Z"/>
  <path class="cls-1" d="m359.23,419.17c-4.29,0-7.91-3.33-7.98-7.33-.08-4.53,3.47-8.23,7.75-8.08,4.33.15,7.76,3.53,7.68,7.58-.08,4.32-3.43,7.84-7.46,7.83Z"/>
  <path class="cls-1" d="m386.36,411.09c.33-4.36,3.8-7.57,7.9-7.32,4.6.28,7.91,3.98,7.43,8.32-.48,4.36-4.02,7.41-8.15,7.03-4.35-.4-7.49-3.92-7.17-8.02Z"/>
  <path class="cls-1" d="m489.4,410.98c.12,4.24-3.17,8.02-7.13,8.2-4.48.2-8.35-3.31-8.32-7.53.03-4.3,3.37-7.88,7.38-7.92,4.28-.04,7.96,3.27,8.07,7.26Z"/>
  <path class="cls-1" d="m516.57,403.74c4.31.06,7.85,3.4,7.86,7.43.01,4.54-3.57,8.18-7.85,7.97-4.36-.21-7.7-3.6-7.57-7.68.14-4.33,3.51-7.77,7.56-7.72Z"/>
  <path class="cls-1" d="m201.61,191.34c-4.26.06-7.98-3.25-8.1-7.23-.14-4.5,3.39-8.3,7.64-8.21,4.32.09,7.82,3.44,7.81,7.48-.01,4.29-3.35,7.9-7.35,7.96Z"/>
  <path class="cls-1" d="m165.81,175.88c4.26-.07,7.99,3.24,8.12,7.21.16,4.49-3.38,8.31-7.63,8.23-4.32-.08-7.84-3.43-7.83-7.46,0-4.29,3.33-7.91,7.33-7.98Z"/>
  <path class="cls-1" d="m86.29,183.2c.08,4.25-3.22,7.99-7.19,8.14-4.48.17-8.32-3.37-8.25-7.61.07-4.32,3.41-7.85,7.44-7.85,4.29,0,7.92,3.31,8,7.32Z"/>
  <path class="cls-1" d="m121.31,428.97c-.14,4.33-3.51,7.77-7.56,7.72-4.55-.06-8.1-3.68-7.82-7.98.28-4.37,3.71-7.62,7.81-7.42,4.36.21,7.7,3.6,7.57,7.68Z"/>
  <path class="cls-1" d="m569.32,173.78c-4.33-.13-7.78-3.5-7.74-7.54.05-4.55,3.67-8.11,7.96-7.84,4.37.28,7.63,3.69,7.44,7.79-.2,4.36-3.59,7.71-7.67,7.59Z"/>
  <path class="cls-1" d="m541.96,165.82c0,4.29-3.32,7.92-7.32,7.99-4.53.08-8.24-3.46-8.1-7.74.15-4.33,3.52-7.76,7.57-7.7,4.32.07,7.84,3.42,7.84,7.45Z"/>
  <path class="cls-1" d="m359.33,173.81c-4.27.05-7.97-3.26-8.09-7.24-.13-4.5,3.4-8.29,7.66-8.19,4.32.1,7.81,3.46,7.79,7.49-.02,4.3-3.36,7.89-7.37,7.94Z"/>
  <path class="cls-1" d="m149.14,454.24c-4.24.12-8.02-3.17-8.2-7.13-.2-4.48,3.31-8.35,7.53-8.32,4.3.03,7.88,3.37,7.92,7.38.04,4.28-3.27,7.96-7.26,8.07Z"/>
  <path class="cls-1" d="m201.08,438.79c4.31.05,7.86,3.39,7.88,7.41.02,4.54-3.55,8.18-7.83,7.99-4.36-.2-7.71-3.59-7.59-7.67.13-4.33,3.5-7.78,7.54-7.74Z"/>
  <path class="cls-1" d="m296.58,446.44c-.11,4.32-3.47,7.81-7.51,7.78-4.55-.03-8.13-3.64-7.88-7.93.26-4.37,3.66-7.65,7.76-7.48,4.35.18,7.73,3.57,7.63,7.63Z"/>
  <path class="cls-1" d="m324.2,454.22c-4.29,0-7.92-3.31-8-7.32-.09-4.53,3.46-8.24,7.74-8.1,4.33.14,7.77,3.52,7.7,7.57-.07,4.32-3.41,7.85-7.44,7.85Z"/>
  <path class="cls-1" d="m173.92,165.72c.06,4.26-3.25,7.98-7.23,8.1-4.5.14-8.3-3.39-8.21-7.64.09-4.32,3.44-7.82,7.48-7.81,4.29.01,7.9,3.35,7.96,7.35Z"/>
  <path class="cls-1" d="m96.31,173.8c-4.3-.02-7.9-3.35-7.95-7.36-.06-4.54,3.5-8.22,7.78-8.06,4.34.17,7.74,3.55,7.66,7.61-.09,4.32-3.45,7.82-7.48,7.8Z"/>
  <path class="cls-1" d="m568.79,438.76c4.24-.14,8.03,3.14,8.23,7.1.22,4.47-3.27,8.37-7.5,8.36-4.29-.01-7.9-3.35-7.96-7.35-.06-4.26,3.25-7.98,7.23-8.1Z"/>
  <path class="cls-1" d="m394.07,156.26c-4.32-.12-7.79-3.49-7.75-7.53.05-4.55,3.65-8.12,7.94-7.86,4.37.27,7.64,3.67,7.46,7.78-.19,4.35-3.58,7.72-7.65,7.61Z"/>
  <path class="cls-1" d="m156.36,464.07c-.16,4.34-3.55,7.75-7.6,7.66-4.56-.09-8.07-3.72-7.77-8.02.31-4.36,3.75-7.59,7.85-7.37,4.37.24,7.67,3.63,7.52,7.73Z"/>
  <path class="cls-1" d="m184.07,471.75c-4.27.05-7.97-3.26-8.09-7.24-.13-4.5,3.4-8.29,7.66-8.19,4.32.1,7.81,3.46,7.79,7.49-.02,4.3-3.36,7.89-7.37,7.94Z"/>
  <path class="cls-1" d="m244.02,463.74c.02,4.29-3.3,7.93-7.3,8.02-4.53.1-8.25-3.44-8.12-7.72.13-4.33,3.51-7.78,7.55-7.72,4.31.06,7.86,3.4,7.87,7.43Z"/>
  <path class="cls-1" d="m436.8,463.85c-.04,4.3-3.38,7.87-7.4,7.9-4.54.03-8.19-3.54-8.01-7.82.19-4.35,3.58-7.72,7.65-7.61,4.32.12,7.79,3.49,7.75,7.53Z"/>
  <path class="cls-1" d="m463.99,456.32c4.31.06,7.85,3.4,7.86,7.43.01,4.54-3.57,8.18-7.85,7.97-4.36-.21-7.7-3.6-7.57-7.68.14-4.33,3.51-7.77,7.56-7.72Z"/>
  <path class="cls-1" d="m43.48,140.85c4.32.12,7.79,3.49,7.74,7.53-.05,4.55-3.66,8.11-7.95,7.85-4.37-.27-7.64-3.68-7.45-7.79.2-4.35,3.58-7.71,7.66-7.6Z"/>
  <path class="cls-1" d="m577.03,463.54c.13,4.24-3.15,8.03-7.11,8.22-4.47.21-8.36-3.29-8.34-7.52.02-4.3,3.36-7.89,7.37-7.94,4.27-.05,7.97,3.26,8.09,7.24Z"/>
  <path class="cls-1" d="m358.48,123.29c4.24-.14,8.03,3.14,8.23,7.1.22,4.47-3.27,8.37-7.5,8.36-4.29-.01-7.9-3.35-7.96-7.35-.06-4.26,3.25-7.98,7.23-8.1Z"/>
  <path class="cls-1" d="m323.83,123.32c4.32.09,7.82,3.44,7.81,7.48-.02,4.55-3.61,8.15-7.9,7.91-4.37-.24-7.67-3.63-7.52-7.73.16-4.34,3.55-7.75,7.6-7.66Z"/>
  <path class="cls-1" d="m296.61,130.59c.1,4.25-3.19,8.01-7.16,8.17-4.48.19-8.34-3.33-8.29-7.57.05-4.31,3.39-7.87,7.41-7.89,4.29-.03,7.94,3.29,8.04,7.28Z"/>
  <path class="cls-1" d="m236.34,138.73c-4.32-.12-7.79-3.49-7.75-7.53.05-4.55,3.65-8.12,7.94-7.86,4.37.27,7.64,3.67,7.46,7.78-.19,4.35-3.58,7.72-7.65,7.61Z"/>
  <path class="cls-1" d="m208.95,130.91c-.07,4.32-3.42,7.84-7.45,7.84-4.54,0-8.16-3.58-7.95-7.87.22-4.37,3.61-7.69,7.7-7.55,4.33.15,7.76,3.52,7.7,7.57Z"/>
  <path class="cls-1" d="m499.66,489.29c-4.24.12-8.02-3.17-8.2-7.13-.2-4.48,3.31-8.35,7.53-8.32,4.3.03,7.88,3.37,7.92,7.38.04,4.28-3.27,7.96-7.26,8.07Z"/>
  <path class="cls-1" d="m428.72,121.17c-4.36-.33-7.57-3.8-7.32-7.9.28-4.6,3.98-7.91,8.32-7.43,4.36.48,7.41,4.02,7.03,8.15-.4,4.35-3.92,7.49-8.02,7.17Z"/>
  <path class="cls-1" d="m401.73,113.46c-.12,4.32-3.49,7.79-7.53,7.75-4.55-.05-8.12-3.65-7.86-7.94.27-4.37,3.67-7.64,7.78-7.46,4.35.19,7.72,3.58,7.61,7.65Z"/>
  <path class="cls-1" d="m165.91,491.36c4.29-.02,7.93,3.3,8.02,7.3.1,4.53-3.44,8.25-7.72,8.12-4.33-.13-7.78-3.51-7.72-7.55.06-4.31,3.4-7.86,7.43-7.87Z"/>
  <path class="cls-1" d="m366.69,113.34c-.05,4.31-3.39,7.86-7.41,7.88-4.54.02-8.18-3.55-7.99-7.83.2-4.36,3.59-7.71,7.67-7.59,4.33.13,7.78,3.5,7.74,7.54Z"/>
  <path class="cls-1" d="m271.39,506.78c-4.32-.12-7.79-3.49-7.75-7.53.05-4.55,3.65-8.12,7.94-7.86,4.37.27,7.64,3.67,7.46,7.78-.19,4.35-3.58,7.72-7.65,7.61Z"/>
  <path class="cls-1" d="m376.76,506.8c-4.29,0-7.91-3.33-7.98-7.33-.08-4.53,3.47-8.23,7.75-8.08,4.33.15,7.76,3.53,7.68,7.58-.08,4.32-3.43,7.84-7.46,7.83Z"/>
  <path class="cls-1" d="m323.79,105.79c4.31.06,7.85,3.4,7.86,7.43.01,4.54-3.57,8.18-7.85,7.97-4.36-.21-7.7-3.6-7.57-7.68.14-4.33,3.51-7.77,7.56-7.72Z"/>
  <path class="cls-1" d="m296.59,113.34c-.05,4.31-3.39,7.86-7.41,7.88-4.54.02-8.18-3.55-7.99-7.83.2-4.36,3.59-7.71,7.67-7.59,4.33.13,7.78,3.5,7.74,7.54Z"/>
  <path class="cls-1" d="m253.32,105.77c4.24-.14,8.03,3.14,8.23,7.1.22,4.47-3.27,8.37-7.5,8.36-4.29-.01-7.9-3.35-7.96-7.35-.06-4.26,3.25-7.98,7.23-8.1Z"/>
  <path class="cls-1" d="m226.48,113.34c-.05,4.31-3.39,7.86-7.41,7.88-4.54.02-8.18-3.55-7.99-7.83.2-4.36,3.59-7.71,7.67-7.59,4.33.13,7.78,3.5,7.74,7.54Z"/>
  <path class="cls-1" d="m184.07,121.23c-4.27.05-7.97-3.26-8.09-7.24-.13-4.5,3.4-8.29,7.66-8.19,4.32.1,7.81,3.46,7.79,7.49-.02,4.3-3.36,7.89-7.37,7.94Z"/>
  <path class="cls-1" d="m156.37,113.44c-.11,4.32-3.47,7.81-7.51,7.77-4.55-.03-8.13-3.64-7.88-7.93.26-4.37,3.66-7.65,7.76-7.48,4.35.18,7.73,3.57,7.63,7.63Z"/>
  <path class="cls-1" d="m411.81,103.7c-4.29,0-7.91-3.33-7.98-7.33-.08-4.53,3.47-8.23,7.75-8.08,4.33.15,7.76,3.53,7.68,7.58-.08,4.32-3.43,7.84-7.46,7.83Z"/>
  <path class="cls-1" d="m551.67,508.9c4.32.09,7.82,3.44,7.81,7.48-.02,4.55-3.61,8.15-7.9,7.91-4.37-.24-7.67-3.63-7.52-7.73.16-4.34,3.55-7.75,7.6-7.66Z"/>
  <path class="cls-1" d="m341.89,103.71c-4.25.1-8.01-3.19-8.17-7.16-.19-4.48,3.33-8.34,7.57-8.29,4.31.05,7.87,3.39,7.89,7.41.03,4.29-3.29,7.94-7.28,8.04Z"/>
  <path class="cls-1" d="m201.59,103.7c-4.27.05-7.97-3.26-8.09-7.24-.13-4.5,3.4-8.29,7.66-8.19,4.32.1,7.81,3.46,7.79,7.49-.02,4.3-3.36,7.89-7.37,7.94Z"/>
  <path class="cls-1" d="m261.53,534.04c-.09,4.32-3.44,7.82-7.48,7.81-4.55-.02-8.15-3.61-7.91-7.9.24-4.37,3.63-7.67,7.73-7.52,4.34.16,7.75,3.55,7.66,7.6Z"/>
  <path class="cls-1" d="m148.89,103.69c-4.3-.02-7.9-3.35-7.95-7.36-.06-4.54,3.5-8.22,7.78-8.06,4.34.17,7.74,3.55,7.66,7.61-.09,4.32-3.45,7.82-7.48,7.8Z"/>
  <path class="cls-1" d="m366.7,78.17c.02,4.29-3.3,7.93-7.3,8.02-4.53.1-8.25-3.44-8.12-7.72.13-4.33,3.51-7.78,7.55-7.72,4.31.06,7.86,3.4,7.87,7.43Z"/>
  <path class="cls-1" d="m436.81,43.03c.06,4.26-3.25,7.98-7.23,8.1-4.5.14-8.3-3.39-8.21-7.64.09-4.32,3.44-7.82,7.48-7.81,4.29.01,7.9,3.35,7.96,7.35Z"/>
  <path class="cls-1" d="m279.09,551.19c.12,4.24-3.17,8.02-7.13,8.2-4.48.2-8.35-3.31-8.32-7.53.03-4.3,3.37-7.88,7.38-7.92,4.28-.04,7.96,3.27,8.07,7.26Z"/>
  <path class="cls-1" d="m323.95,559.36c-4.33-.13-7.78-3.5-7.74-7.54.05-4.55,3.67-8.11,7.96-7.84,4.37.28,7.63,3.69,7.44,7.79-.2,4.36-3.59,7.71-7.67,7.59Z"/>
  <path class="cls-1" d="m271.71,18.2c4.36.33,7.57,3.8,7.32,7.9-.28,4.6-3.98,7.91-8.32,7.43-4.36-.48-7.41-4.02-7.03-8.15.4-4.35,3.92-7.49,8.02-7.17Z"/>
  <path class="cls-1" d="m148.3,33.54c-4.36-.33-7.57-3.8-7.32-7.9.28-4.6,3.98-7.91,8.32-7.43,4.36.48,7.41,4.02,7.03,8.15-.4,4.35-3.92,7.49-8.02,7.17Z"/>
  <path class="cls-1" d="m279.06,288.62c-.06,4.31-3.4,7.85-7.43,7.86-4.54.01-8.18-3.57-7.97-7.85.21-4.36,3.6-7.7,7.68-7.57,4.33.14,7.77,3.51,7.72,7.56Z"/>
  <path class="cls-1" d="m429.13,16.05c-4.32-.12-7.79-3.49-7.75-7.53.05-4.55,3.65-8.12,7.94-7.86,4.37.27,7.64,3.67,7.46,7.78-.19,4.35-3.58,7.72-7.65,7.61Z"/>
  <path class="cls-1" d="m394.18,16.06c-4.31-.06-7.86-3.4-7.87-7.43-.02-4.54,3.56-8.18,7.85-7.97,4.36.21,7.7,3.59,7.58,7.68-.13,4.33-3.51,7.78-7.55,7.72Z"/>
  <path class="cls-1" d="m236.34,16.05c-4.32-.12-7.79-3.49-7.75-7.53.05-4.55,3.65-8.12,7.94-7.86,4.37.27,7.64,3.67,7.46,7.78-.19,4.35-3.58,7.72-7.65,7.61Z"/>
  <path class="cls-1" d="m384.2,569.23c-.16,4.34-3.55,7.75-7.6,7.66-4.56-.09-8.07-3.72-7.77-8.02.31-4.36,3.75-7.59,7.85-7.37,4.37.24,7.67,3.63,7.52,7.73Z"/>
  <path class="cls-1" d="m200.96.63c4.29-.02,7.93,3.3,8.02,7.3.1,4.53-3.44,8.25-7.72,8.12-4.33-.13-7.78-3.51-7.72-7.55.06-4.31,3.4-7.86,7.43-7.87Z"/>
  <path class="cls-1" d="m166.66,16.08c-4.24.12-8.02-3.17-8.2-7.13-.2-4.48,3.31-8.35,7.53-8.32,4.3.03,7.88,3.37,7.92,7.38.04,4.28-3.27,7.96-7.26,8.07Z"/>
  <path class="cls-2" d="m542.68,86.93v-51.92h-51.82v51.92h51.82Z"/>
  <path class="cls-2" d="m516.62,555.54c-2.58,2.19-4.07,4.01-5.98,4.79-.66.27-3.6-2.67-3.4-3.05,1.15-2.19,2.92-4.05,4.49-6.03,1.28,1.12,2.55,2.23,4.9,4.29Z"/>
  <path class="cls-1" d="m542.68,86.93h-51.82v-51.92h51.82v51.92Z"/>
  <path class="cls-1" d="m35.01,542.49v-51.86h51.86v51.86h-51.86Z"/>
  <path class="cls-1" d="m35.01,86.8v-51.85h51.86v51.85h-51.86Z"/>
</svg>