<?xml version="1.0" encoding="UTF-8"?>
<svg id="Layer_1" data-name="Layer 1" xmlns="http://www.w3.org/2000/svg" viewBox="0 0 631.77 726.41">
  <defs>
    <style>
      .cls-1 {
        stroke: #000;
        stroke-linecap: round;
        stroke-linejoin: bevel;
        stroke-width: 20px;
      }

      .cls-1, .cls-2 {
        fill: none;
      }

      .cls-2 {
        stroke-width: 10px;
      }

      .cls-2, .cls-3, .cls-4 {
        stroke: #fff;
        stroke-miterlimit: 10;
      }

      .cls-3 {
        stroke-width: 6px;
      }

      .cls-3, .cls-4, .cls-5 {
        fill: #fff;
      }

      .cls-4 {
        stroke-width: 12px;
      }

      .cls-6 {
        fill: #febc07;
      }

      .cls-6, .cls-5, .cls-7 {
        stroke-width: 0px;
      }

      .cls-7 {
        fill: #0071bc;
      }
    </style>
  </defs>
  <g>
    <g>
      <polygon class="cls-7" points="621.77 187.3 621.77 539.81 315.88 716.41 10 539.81 10 186.6 315.88 10 621.77 186.6 621.77 187.3"/>
      <g>
        <line class="cls-1" x1="10" y1="539.81" x2="10" y2="186.6"/>
        <line class="cls-1" x1="10" y1="186.6" x2="315.88" y2="10"/>
        <line class="cls-1" x1="10" y1="539.81" x2="315.88" y2="716.41"/>
        <line class="cls-1" x1="621.77" y1="539.81" x2="315.88" y2="716.41"/>
        <line class="cls-1" x1="315.88" y1="10" x2="621.77" y2="186.6"/>
        <polyline class="cls-1" points="621.77 540.5 621.77 539.81 621.77 187.3"/>
      </g>
    </g>
    <g>
      <path class="cls-6" d="M207.07,574.07l6.73-9.31c5.28,4.57,11.55,8.53,20.57,8.53,10.07,0,17.69-5.62,17.69-15.23s-6.92-14.76-16.93-14.76c-5.94,0-9.29,1.3-14.78,4.38l-6.88-4.42,2.4-39.25h46.91v12.3h-34.35l-1.71,19.09c4.12-1.63,7.6-2.52,12.55-2.52,14.93,0,27.33,7.75,27.33,24.82s-14.52,27.37-30.33,27.37c-14.02,0-22.85-5.15-29.21-11.01Z"/>
      <path class="cls-6" d="M283.62,543.5c0-26.89,11.52-40.99,29.59-40.99s29.59,14.1,29.59,40.99-11.52,41.58-29.59,41.58-29.59-14.85-29.59-41.58ZM329.73,543.5c0-21.73-7.05-29.63-16.52-29.63s-16.52,7.9-16.52,29.63,7.05,30.22,16.52,30.22,16.52-8.49,16.52-30.22ZM304.63,542.95c0-5.45,3.85-8.89,8.58-8.89s8.58,3.45,8.58,8.89-3.85,8.97-8.58,8.97-8.58-3.45-8.58-8.97Z"/>
      <path class="cls-6" d="M361.69,571.79h22.17v-52.08h-17.74v-9.14c10.06-1.43,15.88-3.35,21.51-6.56h10.69v67.78h19.37v11.79h-56.01v-11.79Z"/>
    </g>
  </g>
  <circle class="cls-4" cx="199.43" cy="309.71" r="34.94"/>
  <path class="cls-4" d="M128.96,438.94v-41.98c0-16.1,13.05-29.16,29.16-29.16h82.62c16.1,0,29.16,13.05,29.16,29.16v41.98"/>
  <rect class="cls-2" x="336.82" y="177.76" width="143.33" height="118.68" rx="20.82" ry="20.82"/>
  <polygon class="cls-5" points="277.85 360 361.03 239.55 288 366.41 277.85 360 277.85 360"/>
  <g id="pjNifE.tif">
    <path class="cls-3" d="M411.36,221.38c2.19.05,4.37.85,6.42,2.06,1.8,1.06,3.42,2.37,4.96,3.76,1.31,1.18,2.53,2.47,3.76,3.75,2.28,2.36,4.53,4.75,6.82,7.11,1.29,1.33,2.63,2.62,4,3.89,2.18,2.01,4.5,3.84,7.02,5.38,2.37,1.44,4.89,2.59,7.57,3.43,1.84.57,3.71.92,5.57,1.38.21.05.44.02.66.04.16.02.41,0,.36.27-.04.2-.11.38-.42.39-.65.04-1.26-.2-1.87-.32-2.52-.47-4.97-1.21-7.34-2.2-4.06-1.7-7.63-4.15-10.95-7-2.8-2.4-5.31-5.08-7.87-7.72-1.28-1.31-2.43-2.75-3.73-4.04-2.43-2.41-4.8-4.89-7.64-6.84-1.73-1.19-3.61-2.12-5.68-2.52-1.76-.34-3.5-.16-5.24.41-2.92.96-5.27,2.78-7.52,4.77-3.3,2.9-6.17,6.22-9.2,9.39-2.11,2.21-4.26,4.39-6.58,6.4-1.22,1.05-2.46,2.08-3.76,3.02-2.11,1.51-4.34,2.84-6.75,3.87-1.6.69-3.23,1.27-4.89,1.76-1.48.43-3.01.7-4.52,1-.13.02-.27-.01-.4,0-.27.03-.35-.15-.37-.36-.03-.25.16-.28.34-.3,1.13-.09,2.22-.43,3.32-.64,1.47-.29,2.89-.76,4.3-1.26,2.08-.74,4.07-1.71,5.95-2.85,1.96-1.19,3.81-2.55,5.57-4.03,1.7-1.42,3.32-2.93,4.88-4.5,2.26-2.29,4.45-4.65,6.65-7,1.91-2.04,3.89-4,6.03-5.81,1.42-1.2,2.91-2.29,4.53-3.16,1.79-.97,3.73-1.55,6.03-1.53Z"/>
  </g>
</svg>