<?xml version="1.0" encoding="UTF-8"?>
<svg id="Layer_1" data-name="Layer 1" xmlns="http://www.w3.org/2000/svg" viewBox="0 0 4180 2758.56">
  <defs>
    <style>
      .cls-1, .cls-2 {
        stroke: #f68b31;
        stroke-miterlimit: 10;
        stroke-width: 20px;
      }

      .cls-1, .cls-3 {
        fill: #f68b31;
      }

      .cls-2 {
        fill: none;
      }

      .cls-3 {
        stroke-width: 0px;
      }
    </style>
  </defs>
  <path class="cls-3" d="M581.04,401.56c-9.4,77.28-4.47,157.92-32.55,231.66-32.96,86.56-97.21,158.05-164.17,220.17-127.33,118.13-289.24,216.52-357.6,384.01-66.39,162.67-2.11,342.49,116.26,463.13,133.71,136.28,328.1,189.78,511.76,215.29,438.06,60.83,885.05,3.53,1321,85.87,101.62,19.19,201.24,47.05,285.48,109.4,77.38,57.27,138.66,132.92,203.05,203.66,125.54,137.93,274.56,255.18,443.75,334.9,162.63,76.63,341.87,117.59,521.99,107.39,176.65-10.01,352.79-66.38,496.15-171.43,72.58-53.18,138.63-118.26,185.89-195.27,50.85-82.86,72.43-177.62,67.21-274.43-11.29-209.3-126.51-388.74-202.46-578.33-40.84-101.95-64.14-206.58-73.28-315.98-9.04-108.12-8.36-216.8-17.69-324.9-16.5-191.24-64.12-384.31-167.01-548.29-94.43-150.5-238.64-272.35-410.29-323.85-83.37-25.01-170.67-31.02-256.64-17.49-97.81,15.39-190.09,53.79-279.55,94.84-93.63,42.97-185.82,88.35-283.08,122.82-95.58,33.87-193.97,59.76-293.79,77.61-200.15,35.78-406.62,39.04-607.76,9.11-100.3-14.92-199.4-38.01-295.87-69.27-66.86-21.67-127.97-57.36-194.97-78.93-81.78-26.34-166.45-31.8-251.1-17.65-70.7,11.82-146.19,35.16-200.9,83.48-21.93,19.37-39.99,43.93-48.35,72.22-9.48,32.07-11.36,67.27-15.47,100.27-1.59,12.74,18.43,12.63,20,0,4.13-33.19,5.32-69.72,16.85-101.49,11.92-32.85,38.92-58.23,67.68-76.74,64.1-41.26,144.28-59.64,219.56-64.82,87.81-6.05,172.27,14.6,252.5,49.06,28.73,12.34,56.75,26.3,85.61,38.35,38.54,16.08,79.41,27.33,119.6,38.42,374.13,103.28,780.54,87.25,1145.36-45.23,181.49-65.9,349.46-179.09,541.97-211.62,181.86-30.73,364.05,36.37,501.48,155.17,144.23,124.68,231.46,300.51,276.71,483.39,23.39,94.52,35.84,191.12,41.58,288.23,6.34,107.29,6.26,215.06,19.07,321.9,12.27,102.31,39.85,199.22,79.76,294.08,38.39,91.25,84.17,179.21,121.61,270.86,38.9,95.2,68.9,196.89,69.68,300.47.76,100.76-30.71,194.4-90.11,275.52-106.58,145.53-273.01,242.93-445.33,288.88-173.08,46.15-356.2,42.01-528.21-6.7-176.62-50.02-339.32-143.46-478.42-262.47-70.67-60.46-132.62-128.63-194.69-197.63-59.6-66.25-122.29-132.1-200.13-177.1-87.98-50.86-189.91-71.54-289.05-88.02-103.93-17.28-208.93-27.43-314.07-33.59-216.02-12.65-432.56-8.83-648.71-18.1-198.49-8.51-406.9-21.28-593.57-95.17-167.04-66.12-315.25-197.52-351.59-380.12-17.61-88.5-.1-177.68,45.27-255.22,44.09-75.36,108.27-136.78,173.8-193.42,127.07-109.83,281.39-217.01,331.5-386.47,19.95-67.47,15.86-141.05,24.29-210.42,1.55-12.75-18.46-12.64-20,0Z"/>
  <circle class="cls-1" cx="1228.36" cy="788.75" r="97.58"/>
  <circle class="cls-2" cx="762.56" cy="1217.47" r="97.58"/>
  <circle class="cls-2" cx="1477.11" cy="1315.05" r="97.58"/>
  <circle class="cls-2" cx="1837.37" cy="691.17" r="97.58"/>
  <circle class="cls-2" cx="2208.66" cy="1046" r="97.58"/>
  <circle class="cls-1" cx="2089.61" cy="1574.27" r="97.58"/>
  <circle class="cls-1" cx="2779.98" cy="664.8" r="97.58"/>
  <circle class="cls-2" cx="2682.41" cy="1379.12" r="97.58"/>
  <circle class="cls-1" cx="3250.7" cy="1082.36" r="97.58"/>
  <circle class="cls-2" cx="3250.7" cy="439.3" r="97.58"/>
  <circle class="cls-2" cx="2975.13" cy="1980.61" r="97.58"/>
  <circle class="cls-2" cx="3348.27" cy="1542.94" r="97.58"/>
  <circle class="cls-1" cx="3580.51" cy="2175.76" r="97.58"/>
</svg>