<?xml version="1.0" encoding="UTF-8"?>
<svg id="Layer_1" data-name="Layer 1" xmlns="http://www.w3.org/2000/svg" viewBox="0 0 717.57 420.13">
  <defs>
    <style>
      .cls-1 {
        fill: #998482;
      }

      .cls-2 {
        fill: #999898;
      }

      .cls-3 {
        fill: #070707;
      }

      .cls-4 {
        fill: #040404;
      }

      .cls-5 {
        fill: #050606;
      }

      .cls-6 {
        fill: #8f8f8f;
      }

      .cls-7 {
        fill: #686bb1;
      }

      .cls-8 {
        fill: #939393;
      }

      .cls-9 {
        fill: #6c6eb3;
      }

      .cls-10 {
        fill: #9b9b9a;
      }

      .cls-11 {
        fill: #6a6db3;
      }

      .cls-12 {
        fill: #cc6e8d;
      }

      .cls-13 {
        fill: #878786;
      }

      .cls-14 {
        fill: #1b1a1b;
      }

      .cls-15 {
        fill: #959594;
      }

      .cls-16 {
        fill: #929191;
      }

      .cls-17 {
        fill: #4253a4;
      }

      .cls-18 {
        fill: #9a9a9a;
      }

      .cls-19 {
        fill: #f7ef94;
      }

      .cls-20 {
        fill: #f7f6f6;
      }

      .cls-21 {
        fill: #4052a3;
      }

      .cls-22 {
        fill: #909090;
      }

      .cls-23 {
        fill: #986b65;
      }

      .cls-24 {
        fill: #8b8a8a;
      }

      .cls-25 {
        fill: #979696;
      }

      .cls-26 {
        fill: #8d8d8d;
      }

      .cls-27 {
        fill: #8c8b8b;
      }

      .cls-28 {
        fill: #818080;
      }

      .cls-29 {
        fill: #9d9d9d;
      }

      .cls-30 {
        fill: #fcfcfd;
      }

      .cls-31 {
        fill: #9a9999;
      }

      .cls-32 {
        fill: #4152a4;
      }

      .cls-33 {
        fill: #3f51a3;
      }

      .cls-34 {
        fill: #939392;
      }

      .cls-35 {
        fill: #060606;
      }

      .cls-36 {
        fill: #050505;
      }

      .cls-37 {
        fill: #898989;
      }

      .cls-38 {
        fill: #878283;
      }

      .cls-39 {
        fill: #969696;
      }

      .cls-40 {
        fill: #686bb2;
      }

      .cls-41 {
        fill: #868686;
      }

      .cls-42 {
        fill: #292926;
      }

      .cls-43 {
        fill: #6a6db2;
      }

      .cls-44 {
        fill: #7072b5;
      }

      .cls-45 {
        fill: #32272a;
      }

      .cls-46 {
        fill: #919090;
      }

      .cls-47 {
        fill: #666ab1;
      }

      .cls-48 {
        fill: #151515;
      }

      .cls-49 {
        fill: #6569b0;
      }

      .cls-50 {
        fill: #4052a4;
      }

      .cls-51 {
        fill: #8c8c8b;
      }

      .cls-52 {
        fill: #686cb2;
      }

      .cls-53 {
        fill: #6c6fb3;
      }

      .cls-54 {
        fill: #f6f5f5;
      }

      .cls-55 {
        fill: #949393;
      }

      .cls-56 {
        fill: #e63727;
      }

      .cls-57 {
        fill: #8f8e8e;
      }

      .cls-58 {
        fill: #6d70b4;
      }

      .cls-59 {
        fill: #6f70b0;
      }

      .cls-60 {
        fill: #6b6eb3;
      }

      .cls-61 {
        fill: #838383;
      }

      .cls-62 {
        fill: #8a8083;
      }

      .cls-63 {
        fill: #939292;
      }

      .cls-64 {
        fill: #888;
      }

      .cls-65 {
        fill: #6d6fb4;
      }

      .cls-66 {
        fill: #9c9c9c;
      }

      .cls-67 {
        fill: #f8f7f7;
      }

      .cls-68 {
        fill: #0e0e0e;
      }

      .cls-69 {
        fill: #101111;
      }

      .cls-70 {
        fill: #faf397;
      }

      .cls-71 {
        fill: #6c6fb4;
      }

      .cls-72 {
        fill: #4051a3;
      }

      .cls-73 {
        fill: #cc6d8c;
      }
    </style>
  </defs>
  <g id="Zcj0IU.tif">
    <g>
      <path class="cls-70" d="M387.57,349c.8-1.76,2.65-.94,2,1-.34,2.91-.06,5.26,1,8l-.26,1.49c-46.26,1.58-94.69,1.12-141.8.52-1.65-.02-3.3-.46-4.94-1.01-.12-.95.18-2.14,0-3,.54-1.19.54-2.19,0-3,.58-2.26-.46-4.21,3.45-4.05l140.55.05Z"/>
      <path class="cls-19" d="M389.57,361v9.01s-145.42.01-145.42.01l-.58-9.02c48.63-1.39,97.36-.76,146,0Z"/>
      <path class="cls-12" d="M180.57,125c.82,41.33.77,82.67,0,124,.72.63.74,1.34,0,2-2.39-.32-8.28.9-9.56-.94l-.44-122.57c.75-4.25,6.72-2.01,10-2.5Z"/>
      <path class="cls-73" d="M186.57,125c.96.75,1.95.45,3,0,.38.15,1.28-.33,1.85.12l.15,123.88c.06,1.3-.86,1.65-2,2-2.22-.26-4.74.17-7.01,0v108.01s-.87-.08-.87-.08c-1.24-35.37-.71-72.23-.13-108.92.52-40.83.85-82.5,1-125,1.29-.12,2.74.18,4,0Z"/>
      <path class="cls-42" d="M181.57,250c.03,35.5.01,71.04-.04,106.55l1.04,2.45c20.32.02,40.68-.03,61,0,46.07.07,94.79,1.98,140.55.05,2.24-.09,4.35-.28,6.45-1.05.12.31-.14.78,0,1,63.79-.11,127.46.23,191,1,1.79-1.36,2.35-.79,1,1h-193c-48.65,0-97.35.13-146,0-17.76-.05-42.81,2.06-59.55.05-1.07-.13-2.3.04-3.02-.98-.82-36.33-.4-72.73-.44-109.06,0-.67,0-1.33,0-2,.28-.87.62-.86,1,0,.46.26.42.6,0,1Z"/>
      <path class="cls-56" d="M307.57,124c2.19-.51,2.05,3.52,0,4-20.6,3.22-36.51,42.01-43.02,59.48-6.75,18.13-11.6,36.97-16.98,55.52-.68,2.69-3.12,2.63-4,0,2.35-11.04,5.4-21.99,8.73-32.77,6.85-22.19,23.99-73.54,46.27-83.23-.2-1.04.8-1.71,3-2,1.46,0,3.93-.84,6-1Z"/>
      <path class="cls-4" d="M1.59,218.01c5.16,2.45,12.95,3.78,11.49-4-12.06,7.44-16.1-8.6-9.51-17.51,4.65-6.29,20.56-7.95,20.03,1.97-.25,4.67-2.45,19.77-5,23.06-4.05,5.23-13.44,5.36-18.6,1.5l1.59-5.02Z"/>
      <path class="cls-56" d="M386.57,196c1.93,2.22-2,4.85-4,3-8.41-13.21-16.88-26.59-26.6-38.9-10.95-13.84-25.43-31.82-44.4-32.1-1.16-.09-1.18-1.47-.79-2.45.06-.14.12,2.82-1.21,2.45-.65.05-1.38-.1-2,0,.82-1.12,1.72-3.45,0-4,1.62-.12,3.14-1.25,6.49-.99,29.47,2.24,56.48,51.57,72.51,72.99Z"/>
      <path class="cls-4" d="M117.58,193c.68.68,13.2-6.17,13.61,7.67s-10.74,18.99-23.04,14.45c-1.93-1.29,4.1-27.55,3.44-32.1,11.05-2.41,7.12,1.69,5.99,9.98Z"/>
      <path class="cls-4" d="M337.58,386c.68.68,13.2-6.17,13.61,7.67s-10.74,18.99-23.04,14.45c-1.93-1.29,4.1-27.55,3.44-32.1,11.05-2.41,7.12,1.69,5.99,9.98Z"/>
      <path class="cls-36" d="M177.58,0l1,17L185.53.46l7.04-.45c.09.79,0,1.53-.18,2.31-.81,3.41-9.26,21.71-11.38,24.62-3.37,4.64-7.7,6.77-13.43,7.06-.75-8.25.27-4.73,4.73-6.75,6.14-2.79,1.4-2.84.71-5.16-1.96-6.56-1.76-15.27-3.44-22.08h8Z"/>
      <path class="cls-36" d="M74.89,214.63c-.57-.44,0-1.98-.81-1.62-.91.4-2.16,2.56-3.77,3.26-14.03,6.07-16.11-24.39,2.76-24.7,14.33-.24,8.51,7.51,7.52,16.95-.26,2.5,2.5,5.89-1.49,8.34-1.37-.8-2.95-1.23-4.21-2.22Z"/>
      <path class="cls-36" d="M295.89,407.63c-.57-.44,0-1.98-.81-1.62-.91.4-2.16,2.56-3.77,3.26-14.03,6.07-16.11-24.39,2.76-24.7,14.33-.24,8.51,7.51,7.52,16.95-.26,2.5,2.5,5.89-1.49,8.34-1.37-.8-2.95-1.23-4.21-2.22Z"/>
      <path class="cls-21" d="M640.57,120c-.61-.76.16-3.55,1.63-3.92,4.17-1.06,11.45,5.01,13.37-5.58-2.97-.31-3.49,1.99-7.4,1.49-11.04-1.43-7.24-21.62,2.12-23.77,4.61-1.06,12.64-1.2,12.22,5.12-.29,4.43-2.79,21.17-4.91,24.18-1.64,2.32-5.1,3.73-7.87,3.92-1.24.08-8.86-1.09-9.15-1.45Z"/>
      <path class="cls-5" d="M621.47,348.11c.38.32.92,4.78,1.12,5.89,2.51-.13,3.62-5.5,4.14-5.84,1.29-.83,5.91.23,7.84-.15,1.29,1.12-6.84,9.55-6.95,11.44-.15,2.7,5.77,11.8,4.95,12.55-7.65.65-8.64.65-10.01-6.99-5.05,4.65-4,8.73-12.98,6.99-1.11-.96,7.82-10.49,8.03-12.53.36-3.53-4.58-7.53-4.03-11.46,1.68.33,7.11-.57,7.89.1Z"/>
      <path class="cls-35" d="M142.57,183v44c-1.7-.28-9.59.4-10,0-2.69-2.67,4.64-3.88,4.07-5.43-1.11-4.48,1.23-34.34-.06-35.57-.89-.84-5.4,1.96-4.01-2.99h10.01Z"/>
      <path class="cls-3" d="M47.57,183h10.01c1.39,4.95-3.13,2.16-4.01,2.99-1.29,1.22,1.05,31.09-.06,35.57-.58,1.55,6.76,2.77,4.07,5.43-.41.4-8.3-.28-10,0v-44Z"/>
      <path class="cls-3" d="M268.57,376h10.01c1.39,4.95-3.13,2.16-4.01,2.99-1.29,1.22,1.05,31.09-.06,35.57-.58,1.55,6.76,2.77,4.07,5.43-.41.4-8.3-.28-10,0v-44Z"/>
      <path class="cls-35" d="M363.57,376v44c-1.7-.28-9.59.4-10,0-2.69-2.67,4.64-3.88,4.07-5.43-1.11-4.48,1.23-34.34-.06-35.57-.89-.84-5.4,1.96-4.01-2.99h10.01Z"/>
      <path class="cls-50" d="M568.58,106c3.69-1.52,7.49-16.88,9.1-17.87s5.17-.5,4.07,2.53c-1.98,5.47-7.51,17.7-10.54,22.49-1.24,1.97-4.3,5.7-6.27,6.73s-8.23,2.66-6.37-1.37c.94-2.04,7.49-1.65,7.61-6l-4.6-24.5c7.62-1.48,5.85,12.73,7,18Z"/>
      <path class="cls-35" d="M149.58,227c-.82-.81,3.98-8.76,4.55-10.94,2.75-10.49,1.66-24-5.55-32.56,4.87-2.5,8.8,3.62,10.5,7.5,3.88,8.87,3.73,22.12-1.67,30.33-.87,1.33-6.05,7.4-7.83,5.66Z"/>
      <path class="cls-68" d="M180.57,125c-.03-20.65.02-41.35,0-62.01l-4.02-.51,4.51-12.48,5.5,12.5c-.59,1.18-2.97.16-3.99.49-.29,60.98-.62,122.98-1,186h-1c-.04-41.32.06-82.68,0-124Z"/>
      <path class="cls-35" d="M41.57,183.01c.38.34-3.74,7.44-4.29,9.2-2.29,7.29-2.42,16.65-.4,24,1,3.67,3.94,6.91,4.69,9.32.89,2.86-3.53,1.29-5.06.06-9.07-7.3-9.04-29.62-2.36-38.51,1.23-1.63,5.42-5.86,7.43-4.06Z"/>
      <path class="cls-32" d="M693.56,96c-.01-2.87,6.48-10.41,9.01-7.99,2,1.92-6.79,9.19-7.03,11.53-.33,3.23,6.4,11.23,5.03,12.46-5.98,1.72-6.92-4.17-8.01-8.99-5.15,3.44-5.19,10.95-12.99,8.99.83-2.15,9.67-11.69,9.73-12.47.07-.85-9.83-16.42-.72-11.02,2.08,1.24,2.01,6.55,4.98,7.51Z"/>
      <path class="cls-4" d="M395.57,209c-.23,2.98-.92,4.7-4,3-1.12-.34-3.15.19-5.03-.45-4.99-1.68-6.86-8.54-3.97-12.55.15-.2,3.76-2.94,4-3,4.59-1.2,10.46,2.87,10.71,7.66.11,2.15-1.52,3.81-1.71,5.34Z"/>
      <path class="cls-14" d="M581.57,359c.87.28.86.62,0,1l-191-1h191Z"/>
      <path class="cls-3" d="M243.57,243c.89-.07,3.5-.2,4,0,2.11.83,4.39,6.56,3.83,9.27-1.03,4.98-5.06,5-7.83,6.73-1.42,1.47-2.09,1.13-2-1-8.83-2.76-7.86-14.25,2-15Z"/>
      <path class="cls-45" d="M182.57,125c0,39.81.44,79.7.02,119.51-.02,1.69.64,4.45-1.02,5.49,0-.33,0-.67,0-1-.05-61.17.08-122.37-.04-183.55.07-1.12-.39-1.98,1.04-2.45v62Z"/>
      <path class="cls-17" d="M705.57,122.99c9.82-11.35,10.35-32.46,0-43.49,8.54-2.33,12.02,15.98,11.99,22-.03,6.47-3.78,21.87-11.99,21.49Z"/>
      <path class="cls-32" d="M679.57,79.01c-8.05,11.18-9.59,27.14-2.84,39.33.44.8,5.3,5.38,1.33,4.68-4.84-.86-8.9-13.3-9.38-17.62-.9-8.12.93-24.81,10.89-26.38Z"/>
      <path class="cls-33" d="M623.07,95c1.47.24,3.18,1.42,2.5,3h-27.5c-1.48,0-1.48-3,0-3,7.06,0,18.65-1.03,25,0Z"/>
      <path class="cls-48" d="M88.58,224l4-7.99c-6.49,1.5-8.18-8.39-1.58-6.99s4.02,14.21-2.42,14.97Z"/>
      <path class="cls-48" d="M309.58,417l4-7.99c-6.49,1.5-8.18-8.39-1.58-6.99,6.56,1.4,4.02,14.21-2.42,14.97Z"/>
      <path class="cls-69" d="M581.57,359l1.51-4.01c4.18,1.27,7.95,4.2,12.48,4.02l-12.5,5.98c-1.1-.62-.28-2.84-.49-3.99-.12-.66-.27-.99-1-1v-1Z"/>
      <rect class="cls-72" x="596.57" y="104" width="29" height="2"/>
      <path class="cls-43" d="M243.57,259c-1.26.79-.71,1.36-1,2,2.33.79.77,2.52-1,3-.77,2.53.55,7.92-4.01,5.49l4.01-11.49c.74.23,1.65,0,2,1Z"/>
      <path class="cls-58" d="M416.07,240.02c.5.02,5.84,6.48,6.5,7.49.84,1.28,1.11,2.18-.51,2.49-2.16.4-10.2-10.11-5.98-9.98Z"/>
      <path class="cls-43" d="M538.57,102.01c-.48,3.05.4,10.77-3.99,10.99.18-3.16-.47-10.62,3.99-10.99Z"/>
      <path class="cls-71" d="M534.57,124.05c.34.37-1.63,9.61-2,9.96-.11.1-2.88.09-2.99,0-.4-.39,1.62-10.59,2.01-11,.11-.11,2.87.93,2.98,1.05Z"/>
      <path class="cls-60" d="M529.57,145.01c.44.38-2.58,10.96-3.5,10.97-3.11.03-.2-14.18,3.5-10.97Z"/>
      <path class="cls-60" d="M225.57,345.01c.45.43-.58,12.07-3.99,10.99l1-11c.81.13,2.78-.19,2.99.01Z"/>
      <path class="cls-44" d="M458.57,271.01c1.02,4.65-8.54,2-10.33,1.01-1.36-.75-.51-1.81-.66-3.01l10.99,2Z"/>
      <path class="cls-65" d="M523.57,166.01c.13,2.76-.76,5.38-1.54,7.97-.34,1.11.02,3.87-1.94,3.02-2.46-1.06.2-11.37,3.48-10.99Z"/>
      <path class="cls-60" d="M517.57,187.01c.8.95-2.27,10.93-3.49,10.98-3.53.13,1.36-13.5,3.49-10.98Z"/>
      <path class="cls-53" d="M233.57,302.01c.45.43-1.08,7.65-1.53,9.01-.57,1.72-.05,2.39-2.46,1.99l1-11c.81.13,2.77-.19,2.99.01Z"/>
      <path class="cls-60" d="M406.59,233c-.34-.24-4.28-6.5-4.53-6.99-.89-1.76-.21-1.88,1.01-2.99l6.48,8.49c-.6.85-2.05,2.12-2.96,1.49Z"/>
      <path class="cls-52" d="M546.57,59.01l-1,11c-4.92,1.76-2.54-5.76-1.46-9.02.57-1.72.05-2.39,2.46-1.99Z"/>
      <path class="cls-60" d="M468.58,271c-1.35-1.15,1.7-2.71,2.32-3.17.92-.67,7.77-5.87,7.65-2.33-1.26,1.85-8.02,7.17-9.98,5.49Z"/>
      <path class="cls-11" d="M491.07,247.03c3.86-.11-3.12,10.34-4.99,9.97s-1.14-1.34-.55-2.52,4.91-7.44,5.54-7.46Z"/>
      <path class="cls-60" d="M438.57,265c-1.97,1.74-10.15-6.97-8.99-7.99,2.52-1.38,10.07,7.03,8.99,7.99Z"/>
      <path class="cls-47" d="M543.57,81.01c-1.39,2.25-1.38,13.29-4.99,9.98-.47-.43,1.03-12.87,4.99-9.98Z"/>
      <path class="cls-9" d="M510.57,208.01c.79.92-1.97,11.98-5.99,9.99.46-.63,3.93-12.4,5.99-9.99Z"/>
      <path class="cls-7" d="M238.57,281.01l-2,10c-.81-.13-2.77.19-2.99-.01-.46-.44.88-12.96,4.99-9.99Z"/>
      <path class="cls-40" d="M502.57,228.01c1.03,1.14-4.2,11.97-5.99,9.99-1.03-1.14,4.2-11.97,5.99-9.99Z"/>
      <path class="cls-49" d="M229.57,324.01c.47.43-1.2,12.68-4.99,9.98,1.39-2.25,1.38-13.29,4.99-9.98Z"/>
      <path class="cls-59" d="M391.57,212l4-3c-.18,1.4,1.98,6.02-.5,5.98-.35,0-2.11-2.56-3.5-2.98Z"/>
      <path class="cls-23" d="M309.57,128c0-3.21-1.01-4.65,3-3.99l-1,3.99c-.66,0-1.34-.05-2,0Z"/>
      <path class="cls-24" d="M390.57,255.01c1.59,1.59-1.4,4.58-2.99,2.99s1.4-4.58,2.99-2.99Z"/>
      <path class="cls-16" d="M202.57,249.01c1.59,1.59-1.4,4.58-2.99,2.99s1.4-4.58,2.99-2.99Z"/>
      <path class="cls-38" d="M191.57,249l.99,2.99c-1.51.67-2.65-.96-2.99-.99-.24-2.13-.13-2.24,2-2Z"/>
      <path class="cls-2" d="M242.57,261c5.27-.81,3.25,3.35-1,3,.26-.85.68-2.3,1-3Z"/>
      <path class="cls-28" d="M390.57,245.01c1.59,1.59-1.4,4.58-2.99,2.99s1.4-4.58,2.99-2.99Z"/>
      <path class="cls-63" d="M390.57,265.01c1.59,1.59-1.4,4.58-2.99,2.99s1.4-4.58,2.99-2.99Z"/>
      <path class="cls-57" d="M390.57,235.01c1.59,1.59-1.4,4.58-2.99,2.99s1.4-4.58,2.99-2.99Z"/>
      <path class="cls-8" d="M245.57,271.01c1.59,1.59-1.4,4.58-2.99,2.99s1.4-4.58,2.99-2.99Z"/>
      <path class="cls-55" d="M390.57,276.01c1.59,1.59-1.4,4.58-2.99,2.99s1.4-4.58,2.99-2.99Z"/>
      <path class="cls-62" d="M189.57,125c.78,3.18-3.88,2.98-3,0,1.54-.22.06-1.18,3,0Z"/>
      <path class="cls-63" d="M199.57,124.01c1.59,1.59-1.4,4.58-2.99,2.99s1.4-4.58,2.99-2.99Z"/>
      <path class="cls-51" d="M390.57,286.01c1.59,1.59-1.4,4.58-2.99,2.99s1.4-4.58,2.99-2.99Z"/>
      <path class="cls-8" d="M230.57,124.01c1.59,1.59-1.4,4.58-2.99,2.99s1.4-4.58,2.99-2.99Z"/>
      <path class="cls-41" d="M390.57,296.01c1.59,1.59-1.4,4.58-2.99,2.99s1.4-4.58,2.99-2.99Z"/>
      <path class="cls-22" d="M390.57,214.01c1.59,1.59-1.4,4.58-2.99,2.99s1.4-4.58,2.99-2.99Z"/>
      <path class="cls-57" d="M240.57,124.01c1.59,1.59-1.4,4.58-2.99,2.99s1.4-4.58,2.99-2.99Z"/>
      <path class="cls-26" d="M390.57,306.01c1.59,1.59-1.4,4.58-2.99,2.99s1.4-4.58,2.99-2.99Z"/>
      <path class="cls-39" d="M245.57,312.01c1.59,1.59-1.4,4.58-2.99,2.99s1.4-4.58,2.99-2.99Z"/>
      <path class="cls-25" d="M250.57,124.01c1.59,1.59-1.4,4.58-2.99,2.99s1.4-4.58,2.99-2.99Z"/>
      <path class="cls-15" d="M245.57,322.01c1.59,1.59-1.4,4.58-2.99,2.99s1.4-4.58,2.99-2.99Z"/>
      <path class="cls-46" d="M390.57,327.01c1.59,1.59-1.4,4.58-2.99,2.99s1.4-4.58,2.99-2.99Z"/>
      <path class="cls-6" d="M281.57,124.01c1.59,1.59-1.4,4.58-2.99,2.99s1.4-4.58,2.99-2.99Z"/>
      <path class="cls-37" d="M390.57,337.01c1.59,1.59-1.4,4.58-2.99,2.99s1.4-4.58,2.99-2.99Z"/>
      <path class="cls-63" d="M291.57,124.01c1.59,1.59-1.4,4.58-2.99,2.99s1.4-4.58,2.99-2.99Z"/>
      <path class="cls-28" d="M233.57,249.01c1.59,1.59-1.4,4.58-2.99,2.99s1.4-4.58,2.99-2.99Z"/>
      <path class="cls-64" d="M387.57,349c-.43-2.64.53-2.08,2.99-2,.67,1.5-.96,2.66-.99,3l-2-1Z"/>
      <path class="cls-34" d="M223.57,249.01c1.59,1.59-1.4,4.58-2.99,2.99s1.4-4.58,2.99-2.99Z"/>
      <path class="cls-1" d="M301.57,125c.68,3.38-1.69,1.43-3,2-.66-5.48,1.87-2,3-2Z"/>
      <path class="cls-28" d="M243.57,353c3.22-.52,2.5,1.94,0,3-.06-.27-.96-.72-.93-1.51.03-.86.87-1.23.93-1.49Z"/>
      <path class="cls-66" d="M245.57,335c-1.69,1.5-4.5-1.28-2.99-2.99.94-1.07,4.06,2.03,2.99,2.99Z"/>
      <path class="cls-28" d="M271.57,124.01c1.07.96-2.05,4.06-2.99,2.99-1.51-1.71,1.3-4.49,2.99-2.99Z"/>
      <path class="cls-29" d="M245.57,302.01c1.07.96-2.05,4.06-2.99,2.99-1.51-1.71,1.3-4.49,2.99-2.99Z"/>
      <path class="cls-46" d="M245.57,294c-1.69,1.5-4.5-1.28-2.99-2.99.94-1.07,4.06,2.03,2.99,2.99Z"/>
      <path class="cls-10" d="M220.57,124.01c1.07.96-2.05,4.06-2.99,2.99-1.51-1.71,1.3-4.49,2.99-2.99Z"/>
      <path class="cls-18" d="M209.57,124.01c.29.29.64,3.8-1.48,2.99-3.62-1.38-.26-4.72,1.48-2.99Z"/>
      <path class="cls-31" d="M245.57,284c-1.69,1.5-4.5-1.28-2.99-2.99.94-1.07,4.06,2.03,2.99,2.99Z"/>
      <rect class="cls-46" x="242.58" y="343.01" width="2.99" height="1.99"/>
      <rect class="cls-27" x="258.58" y="124.01" width="1.99" height="2.99"/>
      <rect class="cls-61" x="387.58" y="317.01" width="2.99" height="1.99"/>
      <rect class="cls-61" x="387.58" y="225.01" width="2.99" height="1.99"/>
      <rect class="cls-13" x="210.58" y="249.01" width="1.99" height="2.99"/>
      <path class="cls-54" d="M16.57,197.01c-1.51,5.52.1,13.79-7.99,13-.54-6.44-.24-13.77,7.99-13Z"/>
      <path class="cls-20" d="M115.58,211c-.08-3.38.85-15.51,6.46-13.99,4.12,1.12.46,16.7-6.46,13.99Z"/>
      <path class="cls-20" d="M335.58,404c-.08-3.38.85-15.51,6.46-13.99,4.12,1.12.46,16.7-6.46,13.99Z"/>
      <path class="cls-67" d="M74.57,197c1.02,1-.85,12.74-3.65,13.85-4.52,1.79-3.92-3.56-3.28-7.29.47-2.73,4.16-9.27,6.93-6.56Z"/>
      <path class="cls-67" d="M295.57,390c1.02,1-.85,12.74-3.65,13.85-4.52,1.79-3.92-3.56-3.28-7.29.47-2.73,4.16-9.27,6.93-6.56Z"/>
      <path class="cls-30" d="M657.58,92.01c-.48,4.67-.23,14.32-5.72,15.85-9.4,2.62-5.66-20.28,5.72-15.85Z"/>
      <path class="cls-28" d="M243.57,249.01c1.59,1.59-1.4,4.58-2.99,2.99s1.4-4.58,2.99-2.99Z"/>
    </g>
  </g>
</svg>