<?xml version="1.0" encoding="UTF-8"?>
<svg id="Layer_1" data-name="Layer 1" xmlns="http://www.w3.org/2000/svg" viewBox="0 0 6341.39 3672.08">
  <defs>
    <style>
      .cls-1 {
        stroke-linecap: round;
        stroke-linejoin: round;
      }

      .cls-1, .cls-2, .cls-3 {
        fill: none;
        stroke-width: 50px;
      }

      .cls-1, .cls-2, .cls-4 {
        stroke: #231f20;
      }

      .cls-5 {
        font-family: CenturyGothic-Bold, 'Century Gothic';
        font-weight: 700;
      }

      .cls-5, .cls-6 {
        font-size: 200px;
      }

      .cls-5, .cls-6, .cls-7 {
        fill: #231f20;
      }

      .cls-6 {
        font-family: CenturyGothic, 'Century Gothic';
      }

      .cls-2, .cls-3, .cls-4 {
        stroke-miterlimit: 10;
      }

      .cls-3 {
        stroke: #ed1c24;
      }

      .cls-4 {
        fill: #9cbebe;
        stroke-width: 15px;
      }

      .cls-7, .cls-8 {
        stroke-width: 0px;
      }

      .cls-8 {
        fill: #ed1c24;
      }
    </style>
  </defs>
  <circle class="cls-4" cx="1413.99" cy="916.51" r="130.56"/>
  <circle class="cls-4" cx="2852.81" cy="916.51" r="130.56"/>
  <circle class="cls-4" cx="1413.99" cy="2355.33" r="130.56"/>
  <circle class="cls-4" cx="2852.81" cy="2355.33" r="130.56"/>
  <g>
    <path class="cls-2" d="m1328.15,2256.97c-132.68-171.78-211.62-387.2-211.62-621.05,0-190.56,52.42-368.88,143.62-521.32"/>
    <path class="cls-7" d="m1328.14,1014.87c-14.25,58.88-23.79,137.42-16.61,194.92l-59.67-81.67-98.09-24.59c55.99-14.95,125.18-53.32,174.37-88.66Z"/>
  </g>
  <g>
    <path class="cls-2" d="m2754.45,2441.17c-171.78,132.68-387.2,211.62-621.05,211.62-190.56,0-368.88-52.42-521.32-143.62"/>
    <path class="cls-7" d="m1512.35,2441.17c58.88,14.25,137.42,23.79,194.92,16.61l-81.67,59.67-24.59,98.09c-14.95-55.99-53.31-125.18-88.66-174.37Z"/>
  </g>
  <g>
    <path class="cls-3" d="m2938.66,1014.87c132.68,171.78,211.62,387.2,211.62,621.05,0,190.56-52.42,368.88-143.62,521.32"/>
    <path class="cls-8" d="m2938.66,2256.97c14.25-58.88,23.79-137.42,16.61-194.92l59.67,81.67,98.09,24.59c-55.99,14.95-125.18,53.31-174.37,88.66Z"/>
  </g>
  <g>
    <path class="cls-2" d="m1512.35,830.66c171.78-132.68,387.2-211.62,621.05-211.62,190.56,0,368.88,52.42,521.32,143.62"/>
    <path class="cls-7" d="m2754.45,830.66c-58.88-14.25-137.42-23.79-194.92-16.61l81.67-59.67,24.59-98.09c14.95,55.99,53.31,125.18,88.66,174.37Z"/>
  </g>
  <g>
    <path class="cls-3" d="m2722.25,2224.77c-132.68-171.78-211.62-387.2-211.62-621.05,0-190.56,52.42-368.88,143.62-521.32"/>
    <path class="cls-8" d="m2722.26,982.67c-14.25,58.88-23.79,137.42-16.61,194.92l-59.67-81.67-98.09-24.59c55.99-14.95,125.18-53.31,174.37-88.66Z"/>
  </g>
  <g>
    <line class="cls-2" x1="1413.99" y1="604.63" x2="1413.99"/>
    <path class="cls-7" d="m1413.99,725.33c21.07-56.8,57.03-127.27,95.12-170.95l-95.12,34.4-95.1-34.4c38.09,43.68,74.04,114.15,95.1,170.95Z"/>
  </g>
  <g>
    <line class="cls-2" x1="2852.81" y1="604.63" x2="2852.81"/>
    <path class="cls-7" d="m2852.81,725.33c21.07-56.8,57.03-127.27,95.12-170.95l-95.12,34.4-95.1-34.4c38.09,43.68,74.04,114.15,95.1,170.95Z"/>
  </g>
  <text class="cls-5" transform="translate(576.58 830.66)"><tspan x="0" y="0">Ask a</tspan><tspan x="-284.08" y="240">question</tspan></text>
  <text class="cls-5" transform="translate(0 2302.6)"><tspan x="0" y="0">Understand</tspan><tspan x="188.18" y="240">the World</tspan></text>
  <text class="cls-5" transform="translate(3150.28 785.95)"><tspan x="0" y="0">Obtain</tspan><tspan x="0" y="240">Data</tspan></text>
  <text class="cls-5" transform="translate(3166.88 2355.33)"><tspan x="0" y="0">Understand</tspan><tspan x="0" y="240">the Data</tspan></text>
  <text class="cls-5" transform="translate(2133.4 3370.75)"><tspan x="0" y="0">Reports, Decisions,</tspan><tspan x="0" y="240">and Solutions</tspan></text>
  <g>
    <line class="cls-1" x1="1413.99" y1="2595.33" x2="1413.99" y2="3409.55"/>
    <g>
      <line class="cls-1" x1="1413.99" y1="3409.55" x2="1913.14" y2="3409.55"/>
      <path class="cls-7" d="m2033.84,3409.55c-56.8,21.07-127.27,57.03-170.95,95.12l34.4-95.12-34.4-95.1c43.68,38.09,114.15,74.04,170.95,95.1Z"/>
    </g>
  </g>
  <text class="cls-6" transform="translate(4895.94 1685.74)"><tspan x="0" y="0">Summarize</tspan><tspan x="0" y="300">Visualize</tspan><tspan x="0" y="600">Clean</tspan><tspan x="0" y="900">Interpret</tspan><tspan x="0" y="1200">Model</tspan><tspan x="0" y="1500">...</tspan></text>
  <g>
    <path class="cls-7" d="m4710.07,1549.64c-42.96,29.42-56.13,82.84-61.63,131.7-2.84,25.21-3.36,50.66-2.91,76.01.56,32.07,2.02,64.14,3.09,96.2,2.25,67.27,5.1,134.55,6.56,201.84.71,32.61.65,65.29-1.91,97.82-.62,7.86-1.38,15.71-2.32,23.54-.24,2.01-.44,4.04-.76,6.04.1-.6.64-4.51.1-.8-.15,1-.29,2-.43,3.01-.59,4-1.23,8-1.92,11.98-2.55,14.64-5.79,29.17-10.05,43.41-2,6.68-4.21,13.3-6.65,19.83-1.13,3.04-2.34,6.04-3.54,9.05-1.33,3.34.29-1.03.53-1.21-.31.23-.94,2.18-1.02,2.36-.77,1.76-1.55,3.51-2.36,5.26-5.47,11.89-11.76,23.41-19.03,34.29-1.67,2.5-3.39,4.96-5.17,7.38-.4.54-3.78,5.03-1.65,2.24,1.8-2.35.5-.65.11-.17-.74.91-1.47,1.83-2.21,2.73-3.77,4.57-7.78,8.95-12.02,13.09-2,1.95-4.05,3.85-6.16,5.68-1.11.96-2.23,1.91-3.37,2.84-.56.46-1.17.89-1.71,1.37,1.01-.89,3.58-2.71,1.02-.81-4.44,3.29-9.09,6.29-13.95,8.93-2.47,1.34-4.99,2.53-7.54,3.71-2.99,1.38,4.71-1.84-.05-.03-1.3.5-2.61.96-3.92,1.4-9.89,3.36-17.43,13.9-13.97,24.6,3.18,9.82,14,17.57,24.6,13.97,53.02-18.01,86.12-67.39,106.44-117,23.92-58.41,28.97-123.35,29.29-185.86.17-33.19-1.11-66.36-2.22-99.52-1.13-33.84-2.26-67.67-3.39-101.51-1.15-34.37-2.3-68.75-3.44-103.12-.89-26.57-1.66-53.12-.34-79.69.32-6.45.75-12.89,1.33-19.33.29-3.19.6-6.37.96-9.55.16-1.38.32-2.76.49-4.14.1-.79.2-1.57.3-2.36.32-2.55-.69,4.8-.16,1.22,1.8-12.09,4.04-24.09,7.35-35.86,1.52-5.39,3.24-10.72,5.22-15.95.5-1.32,1.04-2.61,1.54-3.93.88-2.31-1.84,4.13-.8,1.89.22-.47.41-.95.62-1.43,1.18-2.65,2.43-5.27,3.77-7.85,2.44-4.69,5.16-9.24,8.22-13.56.65-.92,1.37-1.81,2-2.74-3.59,5.27-1.23,1.59-.13.29,1.63-1.94,3.34-3.83,5.13-5.63s3.63-3.5,5.55-5.12c1.39-1.17,4.92-3.19-.35.19,1.05-.68,2.05-1.48,3.08-2.19,8.62-5.9,13.32-17.84,7.18-27.36-5.53-8.57-18.13-13.5-27.36-7.18h0Z"/>
    <path class="cls-7" d="m4730.25,3171.07c-1.02-.7-2.02-1.56-3.08-2.19.05.03,4.13,3.34,1.81,1.39-.48-.4-.98-.79-1.46-1.2-1.93-1.62-3.78-3.34-5.55-5.12-1.68-1.69-3.28-3.45-4.82-5.26-.49-.57-3.53-4.42-1.15-1.34s-.8-1.15-1.31-1.88c-3.04-4.34-5.74-8.91-8.17-13.61-1.17-2.28-2.28-4.59-3.32-6.92-.21-.47-.42-.95-.63-1.42-1.3-2.9.75,1.75.8,1.89-.49-1.49-1.18-2.94-1.74-4.41-4.17-11.03-7.21-22.47-9.54-34.02-1.19-5.9-2.16-11.83-3.03-17.78-.49-3.37.2,1.53.23,1.8-.09-.79-.2-1.57-.3-2.35-.2-1.58-.38-3.15-.56-4.73-.36-3.18-.68-6.36-.96-9.55-2.27-25.42-2.43-51-1.72-76.5.92-33.29,2.21-66.57,3.32-99.86,2.25-67.33,5.42-134.71,6.35-202.07.88-63.83-1.61-130.02-21.94-191.08-8.87-26.65-20.8-52.85-37.25-75.71-15.19-21.12-33.84-40.6-57.21-52.67-6.17-3.19-12.64-5.9-19.21-8.13-9.92-3.37-22.3,3.86-24.6,13.97-2.53,11.09,3.35,21,13.97,24.6,1.32.45,2.63.91,3.92,1.4.63.24,1.3.59,1.94.76-.17-.05-4.77-2.13-1.89-.79,2.54,1.18,5.07,2.37,7.54,3.71,5.03,2.72,9.78,5.86,14.39,9.25,2.74,2.01-3.51-2.81-.17-.11,1.14.92,2.27,1.86,3.38,2.82,2.25,1.94,4.44,3.96,6.57,6.04,4.38,4.27,8.5,8.81,12.39,13.54.87,1.06,1.69,2.16,2.57,3.2-3.83-4.49-.45-.56.46.67,1.9,2.58,3.74,5.2,5.52,7.87,3.65,5.45,7.04,11.07,10.22,16.82,3.26,5.9,6.28,11.93,9.08,18.06.71,1.55,1.41,3.11,2.09,4.68.26.59.51,1.18.76,1.77,1.07,2.45-1.51-3.7-.52-1.21,1.36,3.41,2.74,6.81,4.01,10.26,4.79,12.94,8.72,26.2,11.83,39.65,1.76,7.62,3.3,15.28,4.64,22.98.69,3.98,1.33,7.98,1.92,11.98.15,1,.29,2,.43,3.01.07.49.4,3.08.06.35-.37-2.89.05.4.14,1.11.16,1.26.32,2.52.47,3.78,3.87,32.3,4.81,64.88,4.59,97.39-.46,66.95-3.84,133.94-6.08,200.84-1.14,34.1-2.28,68.21-3.42,102.31-.85,25.43-1.04,50.9.73,76.29,1.8,25.77,5.16,51.94,12.97,76.65,7.14,22.61,18.06,44.93,35.31,61.58,4.61,4.45,9.75,8.43,15.03,12.05,8.66,5.93,22.56,1.91,27.36-7.18,5.37-10.16,2.06-21.04-7.18-27.36h0Z"/>
  </g>
</svg>