<?xml version="1.0" encoding="UTF-8"?>
<svg id="Layer_1" data-name="Layer 1" xmlns="http://www.w3.org/2000/svg" viewBox="0 0 4270.98 3672.08">
  <defs>
    <style>
      .cls-1 {
        stroke-linecap: round;
        stroke-linejoin: round;
      }

      .cls-1, .cls-2, .cls-3 {
        fill: none;
        stroke-width: 50px;
      }

      .cls-1, .cls-2, .cls-4 {
        stroke: #231f20;
      }

      .cls-5 {
        font-family: CenturyGothic-Bold, 'Century Gothic';
        font-size: 200px;
        font-weight: 700;
      }

      .cls-5, .cls-6 {
        fill: #231f20;
      }

      .cls-2, .cls-3, .cls-4 {
        stroke-miterlimit: 10;
      }

      .cls-3 {
        stroke: #ed1c24;
      }

      .cls-4 {
        fill: #9cbebe;
        stroke-width: 15px;
      }

      .cls-6, .cls-7 {
        stroke-width: 0px;
      }

      .cls-7 {
        fill: #ed1c24;
      }
    </style>
  </defs>
  <circle class="cls-4" cx="1413.99" cy="916.51" r="130.56"/>
  <circle class="cls-4" cx="2852.81" cy="916.51" r="130.56"/>
  <circle class="cls-4" cx="1413.99" cy="2355.33" r="130.56"/>
  <circle class="cls-4" cx="2852.81" cy="2355.33" r="130.56"/>
  <g>
    <path class="cls-2" d="m1328.14,2256.97c-132.68-171.78-211.62-387.2-211.62-621.05,0-190.56,52.42-368.88,143.62-521.32"/>
    <path class="cls-6" d="m1328.14,1014.87c-14.25,58.88-23.79,137.42-16.61,194.92l-59.67-81.67-98.09-24.59c55.99-14.95,125.18-53.32,174.37-88.66Z"/>
  </g>
  <g>
    <path class="cls-2" d="m2754.45,2441.17c-171.78,132.68-387.2,211.62-621.05,211.62-190.56,0-368.88-52.42-521.32-143.62"/>
    <path class="cls-6" d="m1512.35,2441.17c58.88,14.25,137.42,23.79,194.92,16.61l-81.67,59.67-24.59,98.09c-14.95-55.99-53.31-125.18-88.66-174.37Z"/>
  </g>
  <g>
    <path class="cls-3" d="m2938.66,1014.87c132.68,171.78,211.62,387.2,211.62,621.05,0,190.56-52.42,368.88-143.62,521.32"/>
    <path class="cls-7" d="m2938.66,2256.97c14.25-58.88,23.79-137.42,16.61-194.92l59.67,81.67,98.09,24.59c-55.99,14.95-125.18,53.31-174.37,88.66Z"/>
  </g>
  <g>
    <path class="cls-2" d="m1512.35,830.66c171.78-132.68,387.2-211.62,621.05-211.62,190.56,0,368.88,52.42,521.32,143.62"/>
    <path class="cls-6" d="m2754.45,830.66c-58.88-14.25-137.42-23.79-194.92-16.61l81.67-59.67,24.59-98.09c14.95,55.99,53.31,125.18,88.66,174.37Z"/>
  </g>
  <g>
    <path class="cls-3" d="m2722.25,2224.77c-132.68-171.78-211.62-387.2-211.62-621.05,0-190.56,52.42-368.88,143.62-521.32"/>
    <path class="cls-7" d="m2722.26,982.67c-14.25,58.88-23.79,137.42-16.61,194.92l-59.67-81.67-98.09-24.59c55.99-14.95,125.18-53.31,174.37-88.66Z"/>
  </g>
  <g>
    <line class="cls-2" x1="1413.99" y1="604.63" x2="1413.99"/>
    <path class="cls-6" d="m1413.99,725.33c21.07-56.8,57.03-127.27,95.12-170.95l-95.12,34.4-95.1-34.4c38.09,43.68,74.04,114.15,95.1,170.95Z"/>
  </g>
  <g>
    <line class="cls-2" x1="2852.81" y1="604.63" x2="2852.81"/>
    <path class="cls-6" d="m2852.81,725.33c21.07-56.8,57.03-127.27,95.12-170.95l-95.12,34.4-95.1-34.4c38.09,43.68,74.04,114.15,95.1,170.95Z"/>
  </g>
  <text class="cls-5" transform="translate(576.58 830.66)"><tspan x="0" y="0">Ask a</tspan><tspan x="-284.08" y="240">question</tspan></text>
  <text class="cls-5" transform="translate(0 2302.6)"><tspan x="0" y="0">Understand</tspan><tspan x="188.18" y="240">the World</tspan></text>
  <text class="cls-5" transform="translate(3150.28 785.95)"><tspan x="0" y="0">Obtain</tspan><tspan x="0" y="240">Data</tspan></text>
  <text class="cls-5" transform="translate(3166.88 2355.33)"><tspan x="0" y="0">Understand</tspan><tspan x="0" y="240">the Data</tspan></text>
  <text class="cls-5" transform="translate(2133.4 3370.75)"><tspan x="0" y="0">Reports, Decisions,</tspan><tspan x="0" y="240">and Solutions</tspan></text>
  <g>
    <line class="cls-1" x1="1413.99" y1="2595.33" x2="1413.99" y2="3409.55"/>
    <g>
      <line class="cls-1" x1="1413.99" y1="3409.55" x2="1913.14" y2="3409.55"/>
      <path class="cls-6" d="m2033.84,3409.55c-56.8,21.07-127.27,57.03-170.95,95.12l34.4-95.12-34.4-95.1c43.68,38.09,114.15,74.04,170.95,95.1Z"/>
    </g>
  </g>
</svg>